<svg width="23" height="22" viewBox="0 0 23 22" fill="none" xmlns="http://www.w3.org/2000/svg">
<path d="M6.96355 10.6299L6.96355 6.09814C6.96355 3.59533 8.96933 1.56641 11.4436 1.56641C13.9179 1.56641 15.9236 3.59533 15.9236 6.09814V10.6299M3.79795 20.8263H19.0892C20.2284 20.8263 20.7979 20.8263 21.1307 20.4605C21.4634 20.0947 21.4161 19.5205 21.3215 18.3723L20.746 11.3865C20.5835 9.41415 20.5023 8.42799 19.8593 7.82953C19.2163 7.23108 18.238 7.23108 16.2814 7.23108H6.60574C4.64916 7.23108 3.67086 7.23108 3.02788 7.82953C2.3849 8.42799 2.30366 9.41415 2.14117 11.3865L1.56566 18.3723C1.47106 19.5205 1.42377 20.0947 1.75652 20.4605C2.08928 20.8263 2.65884 20.8263 3.79795 20.8263Z" stroke="#FCEFE8" stroke-width="2.24002" stroke-linecap="round"/>
</svg>
