<svg width="21" height="21" viewBox="0 0 21 21" fill="none" xmlns="http://www.w3.org/2000/svg">
<path d="M6.50763 9.17648C6.79648 9.17648 7.03861 9.07878 7.23402 8.88337C7.42942 8.68797 7.52713 8.44584 7.52713 8.15698C7.52713 7.86812 7.42942 7.62599 7.23402 7.43058C7.03861 7.23518 6.79648 7.13748 6.50763 7.13748C6.21877 7.13748 5.97664 7.23518 5.78123 7.43058C5.58583 7.62599 5.48812 7.86812 5.48812 8.15698C5.48812 8.44584 5.58583 8.68797 5.78123 8.88337C5.97664 9.07878 6.21877 9.17648 6.50763 9.17648ZM10.5856 9.17648C10.8745 9.17648 11.1166 9.07878 11.312 8.88337C11.5074 8.68797 11.6051 8.44584 11.6051 8.15698C11.6051 7.86812 11.5074 7.62599 11.312 7.43058C11.1166 7.23518 10.8745 7.13748 10.5856 7.13748C10.2968 7.13748 10.0546 7.23518 9.85923 7.43058C9.66383 7.62599 9.56612 7.86812 9.56612 8.15698C9.56612 8.44584 9.66383 8.68797 9.85923 8.88337C10.0546 9.07878 10.2968 9.17648 10.5856 9.17648ZM14.6636 9.17648C14.9525 9.17648 15.1946 9.07878 15.39 8.88337C15.5854 8.68797 15.6831 8.44584 15.6831 8.15698C15.6831 7.86812 15.5854 7.62599 15.39 7.43058C15.1946 7.23518 14.9525 7.13748 14.6636 7.13748C14.3748 7.13748 14.1326 7.23518 13.9372 7.43058C13.7418 7.62599 13.6441 7.86812 13.6441 8.15698C13.6441 8.44584 13.7418 8.68797 13.9372 8.88337C14.1326 9.07878 14.3748 9.17648 14.6636 9.17648ZM0.390625 20.391V2.03998C0.390625 1.47925 0.590277 0.999237 0.989581 0.599933C1.38889 0.200629 1.8689 0.000976562 2.42963 0.000976562H18.7416C19.3024 0.000976562 19.7824 0.200629 20.1817 0.599933C20.581 0.999237 20.7806 1.47925 20.7806 2.03998V14.274C20.7806 14.8347 20.581 15.3147 20.1817 15.714C19.7824 16.1133 19.3024 16.313 18.7416 16.313H4.46863L0.390625 20.391ZM3.60205 14.274H18.7416V2.03998H2.42963V15.4209L3.60205 14.274Z" fill="#FCEFE8"/>
</svg>
