<svg width="35" height="34" viewBox="0 0 35 34" fill="none" xmlns="http://www.w3.org/2000/svg">
<path fill-rule="evenodd" clip-rule="evenodd" d="M17.462 22.1594C14.8596 22.1594 12.75 20.0498 12.75 17.4474C12.75 14.845 14.8596 12.7354 17.462 12.7354C20.0644 12.7354 22.1741 14.845 22.1741 17.4474C22.1741 20.0498 20.0644 22.1594 17.462 22.1594Z" stroke="#DF1900" stroke-width="2.77178" stroke-linecap="round" stroke-linejoin="round"/>
<path d="M1.69922 16.0653C1.69922 14.4318 3.03429 13.081 4.6835 13.081C7.52642 13.081 8.68872 11.0706 7.25941 8.60462C6.44266 7.19101 6.92957 5.35332 8.35888 4.53657L11.0761 2.9816C12.317 2.24338 13.9191 2.68317 14.6573 3.92401L14.8301 4.22243C16.2437 6.68839 18.5683 6.68839 19.9976 4.22243L20.1704 3.92401C20.9086 2.68317 22.5107 2.24338 23.7515 2.9816L26.4688 4.53657C27.8981 5.35332 28.385 7.19101 27.5682 8.60462C26.1389 11.0706 27.3012 13.081 30.1441 13.081C31.7777 13.081 33.1284 14.4161 33.1284 16.0653V18.8297C33.1284 20.4632 31.7934 21.814 30.1441 21.814C27.3012 21.814 26.1389 23.8245 27.5682 26.2904C28.385 27.7197 27.8981 29.5417 26.4688 30.3585L23.7515 31.9134C22.5107 32.6517 20.9086 32.2119 20.1704 30.971L19.9976 30.6726C18.584 28.2066 16.2594 28.2066 14.8301 30.6726L14.6573 30.971C13.9191 32.2119 12.317 32.6517 11.0761 31.9134L8.35888 30.3585C6.92957 29.5417 6.44266 27.704 7.25941 26.2904C8.68872 23.8245 7.52642 21.814 4.6835 21.814C3.03429 21.814 1.69922 20.4632 1.69922 18.8297V16.0653Z" stroke="#DF1900" stroke-width="2.77178" stroke-linecap="round" stroke-linejoin="round"/>
</svg>
