<svg width="50" height="50" viewBox="0 0 50 50" fill="none" xmlns="http://www.w3.org/2000/svg">
<circle cx="25" cy="25" r="24.5" fill="#FCEFE8" stroke="#C46262"/>
<g clip-path="url(#clip0_488_276)">
<path d="M6.29688 21.7664V31.2359C6.29687 31.4372 6.34754 31.6367 6.44597 31.8227C6.5444 32.0086 6.68864 32.1775 6.87039 32.3195C7.05214 32.4615 7.26781 32.5737 7.50498 32.6499C7.74216 32.726 7.99613 32.7645 8.25232 32.7632H41.2461C41.5024 32.7645 41.7564 32.726 41.9936 32.6499C42.2307 32.5737 42.4464 32.4615 42.6281 32.3195C42.8098 32.1775 42.9542 32.0086 43.0525 31.8227C43.151 31.6367 43.2016 31.4372 43.2016 31.2359V21.7664C43.2016 21.7664 43.2042 17.2373 24.7493 17.2373C6.29429 17.2373 6.29688 21.7664 6.29688 21.7664Z" fill="#FFE8AE" stroke="#DF1900" stroke-width="0.474074" stroke-miterlimit="10"/>
<path d="M11.2267 20.5801L11.4481 20.8183L11.8236 20.8092L11.6048 21.0485L11.7304 21.3264L11.373 21.2358L11.0764 21.4171L11.0751 21.1218L10.7656 20.9558L11.1218 20.8631L11.2267 20.5801Z" fill="#DF1900"/>
<path d="M20.4426 19.1279L20.6368 19.3804L21.0111 19.3967L20.7663 19.6208L20.8622 19.9058L20.5164 19.7918L20.2004 19.9517L20.2315 19.6574L19.9414 19.4711L20.3053 19.4028L20.4426 19.1279Z" fill="#DF1900"/>
<path d="M38.1074 20.5801L37.886 20.8183L37.5117 20.8092L37.7306 21.0485L37.6037 21.3264L37.9611 21.2358L38.2577 21.4171L38.2589 21.1218L38.5684 20.9558L38.2123 20.8631L38.1074 20.5801Z" fill="#DF1900"/>
<path d="M29.2913 19.2754L29.0969 19.5279L28.7227 19.5442L28.9674 19.7672L28.8716 20.0533L29.2174 19.9393L29.5334 20.0981L29.5023 19.8049L29.7923 19.6175L29.4271 19.5503L29.2913 19.2754Z" fill="#DF1900"/>
<path d="M8.9408 25.9442C8.9408 26.2028 9.07806 26.3209 9.3293 26.2822C10.6774 26.0816 11.3482 25.9941 12.7079 25.8352C12.9423 25.8077 13.1314 25.9971 13.1327 26.272C13.134 26.5469 12.9501 26.774 12.7144 26.7964C11.5075 26.9105 10.3005 27.0428 9.10137 27.1956C8.35934 27.2882 7.93587 26.9247 7.93587 26.1946C7.93587 25.3719 7.93587 24.9616 7.93587 24.1388C7.70407 24.1948 7.52148 24.0615 7.52148 23.8242C7.52148 23.587 7.70407 23.3569 7.93458 23.2927C9.31763 22.9292 10.7007 22.6023 12.1135 22.2989C12.3479 22.2521 12.5357 22.4231 12.537 22.695C12.5383 22.9669 12.3544 23.2062 12.1252 23.2448C10.8444 23.475 10.2073 23.6053 8.93951 23.8965L8.9408 25.9442ZM8.74525 29.1739C8.51086 29.1903 8.32437 29.009 8.32308 28.7667C8.32178 28.5243 8.50827 28.3105 8.74266 28.2871C10.6739 28.112 12.6069 27.9613 14.5416 27.835C14.8278 27.8177 15.0596 28.0672 15.0596 28.3981C15.0596 29.3735 15.07 29.8612 15.0778 30.8419C15.0778 31.1473 14.855 31.3886 14.5701 31.3886C14.2852 31.3886 14.0521 31.1534 14.0521 30.851C14.0521 30.0619 14.0444 29.6678 14.0379 28.8797C12.2715 28.9558 10.5073 29.0538 8.74525 29.1739ZM15.0467 26.8697C15.0467 27.1752 14.824 27.4308 14.5391 27.4501C14.2542 27.4695 14.0211 27.2465 14.0211 26.9471C14.0211 26.0918 14.0107 25.6641 14.0042 24.8088C13.3166 24.8903 12.9682 24.9351 12.2871 25.0298C12.0514 25.0624 11.8636 24.8852 11.8623 24.6225C11.861 24.3598 12.0449 24.1195 12.2806 24.0818C12.9656 23.9729 13.3088 23.922 13.9977 23.8283L13.9848 22.1146C13.9848 21.8091 14.2062 21.5363 14.4911 21.4884C14.776 21.4406 15.0091 21.6442 15.0091 21.9517C15.0221 23.589 15.0346 25.2283 15.0467 26.8697Z" fill="#DF1900"/>
<path d="M21.0899 27.0121C21.0899 27.6047 21.0899 27.901 21.0899 28.4946C21.0899 28.8225 20.8646 29.0801 20.5719 29.0842C20.2792 29.0882 20.0539 28.8388 20.0539 28.5129V27.0406C18.7382 27.0813 18.0816 27.1098 16.7672 27.1801C16.5315 27.1923 16.3425 26.9713 16.3399 26.6801C16.3373 26.3889 16.5238 26.1445 16.7607 26.1283C19.2407 25.9765 21.7103 25.892 24.1836 25.8625C24.4207 25.8625 24.6084 26.1069 24.6084 26.4144C24.6084 26.7219 24.4207 26.9662 24.1836 26.9673C22.9457 26.9703 22.3267 26.9795 21.0899 27.0121ZM17.0482 24.1946C17.9327 23.5725 18.3769 23.2589 19.2653 22.6368C19.4828 22.4881 19.7833 22.5543 19.9011 22.8221C20.019 23.0899 19.9438 23.4462 19.7159 23.6041C18.8314 24.2211 18.3899 24.5317 17.5144 25.1467C17.2982 25.3035 16.9964 25.2292 16.8669 24.9726C16.7374 24.716 16.8151 24.3555 17.0482 24.1946ZM23.6527 30.1573C23.8884 30.1573 24.0762 30.4017 24.0762 30.7082C24.0762 31.0147 23.8898 31.26 23.654 31.2611C21.8893 31.2611 20.1238 31.2611 18.3575 31.2611C17.6103 31.2611 17.1739 30.7459 17.1674 29.8539C17.1674 29.357 17.1674 29.1076 17.1596 28.6107C17.1596 28.293 17.3823 28.0374 17.6685 28.0272C17.9547 28.0171 18.1865 28.2574 18.1865 28.5781C18.1865 29.0343 18.1865 29.2623 18.1943 29.7175C18.1943 30.0229 18.3342 30.191 18.5906 30.1879C20.2706 30.171 21.9549 30.1608 23.6436 30.1573H23.6527ZM23.4481 24.9003C22.4872 24.3128 21.5159 23.7375 20.5305 23.1835C20.1731 22.985 19.9425 22.5889 19.94 22.0106C19.94 21.7743 19.94 21.6552 19.94 21.419C19.94 21.0931 20.1653 20.8467 20.458 20.8274C20.7506 20.808 20.9759 21.0249 20.9759 21.3528C20.9759 21.5513 20.9759 21.6511 20.9759 21.8507C20.9759 22.0808 21.0563 22.1979 21.1753 22.2651C22.2658 22.876 22.811 23.2029 23.8948 23.8658C24.1228 24.0103 24.1991 24.3922 24.0839 24.661C23.9686 24.9298 23.6527 25.0316 23.439 24.9003H23.4481Z" fill="#DF1900"/>
<path d="M27.9863 21.3844C29.5403 21.5473 30.3081 22.8496 30.2965 23.9635L30.2732 28.2238C30.2836 29.3051 29.4069 30.6349 27.9552 30.6288C26.4763 30.6227 25.6346 29.2368 25.6526 28.1464C25.6526 26.6924 25.6526 25.2377 25.6526 23.7823C25.6495 23.4001 25.7342 23.0207 25.9026 22.6622C26.0425 22.372 26.3403 22.2702 26.5787 22.4443C26.8169 22.6184 26.905 23.0033 26.7651 23.2935C26.6985 23.4756 26.6644 23.6641 26.6641 23.8535C26.6641 25.2723 26.6611 26.691 26.655 28.1097C26.655 28.9172 27.2144 29.5353 27.9499 29.5353C28.6855 29.5353 29.2541 28.9467 29.258 28.1505L29.2773 23.9523C29.2773 23.1561 28.718 22.5146 27.9733 22.48L27.4877 22.4596C27.081 22.4433 26.734 22.2488 26.4958 21.8639C26.3183 21.5778 26.3377 21.1858 26.5669 20.973C26.7962 20.7602 27.1251 20.8345 27.2831 21.0972C27.3815 21.2601 27.5007 21.362 27.6897 21.3711L27.9863 21.3844ZM32.7998 30.6614C32.7998 30.976 32.5705 31.2194 32.2818 31.2194C31.993 31.2194 31.7715 30.9709 31.7741 30.6522L31.8324 21.6277C31.8324 21.309 32.0629 21.088 32.3504 21.1247C32.6379 21.1614 32.8684 21.4373 32.8593 21.7509L32.7998 30.6614Z" fill="#DF1900"/>
<path d="M35.4977 30.4254C34.7506 30.4122 34.3207 29.9051 34.3323 29.0396L34.3827 22.3519C34.3827 22.0464 34.6029 21.8428 34.8878 21.8855C35.1727 21.9283 35.3876 22.2042 35.3851 22.5067C35.3696 24.6606 35.3535 26.8144 35.3372 28.9684C35.3372 29.2596 35.4666 29.4204 35.7257 29.4306C36.5869 29.4621 37.0207 29.4794 37.8779 29.5182C38.1137 29.5284 38.3001 29.7473 38.2976 30.009C38.2949 30.2707 38.1085 30.4773 37.8727 30.4723C36.921 30.4508 36.447 30.4417 35.4977 30.4254ZM39.7647 30.6575C39.7647 30.9294 39.5471 31.1402 39.2714 31.1382C38.9955 31.1361 38.7806 30.9172 38.7818 30.6372L38.8013 26.494C38.269 26.4258 38.0035 26.3922 37.4701 26.3311C37.2343 26.3046 37.0492 26.0674 37.0518 25.7976C37.0543 25.5277 37.2407 25.3353 37.4765 25.3679C38.0088 25.4422 38.2756 25.4809 38.8065 25.5613C38.8129 24.48 38.8156 23.9393 38.822 22.8579C38.822 22.5779 39.0382 22.412 39.3102 22.4782C39.5821 22.5443 39.7946 22.8121 39.7933 23.0891C39.7855 25.6109 39.776 28.1337 39.7647 30.6575ZM41.75 30.796C41.75 31.0516 41.5233 31.2502 41.2488 31.2481C40.9742 31.2461 40.7476 31.0445 40.7476 30.7767C40.7546 28.2773 40.7607 25.7775 40.7657 23.2775C40.7657 23.0127 40.9885 22.8702 41.2592 22.9445C41.4047 22.997 41.5281 23.081 41.615 23.1867C41.7021 23.2923 41.7488 23.4153 41.75 23.5412V30.796Z" fill="#DF1900"/>
</g>
<defs>
<clipPath id="clip0_488_276">
<rect width="37.5" height="16" fill="white" transform="translate(6 17)"/>
</clipPath>
</defs>
</svg>
