<svg width="117" height="67" viewBox="0 0 117 67" fill="none" xmlns="http://www.w3.org/2000/svg">
<path d="M1 19.9612V59.6057C1 61.3016 1.64185 62.928 2.78436 64.1272C3.92686 65.3263 5.47643 66 7.09218 66H109.908C111.524 66 113.073 65.3263 114.216 64.1272C115.358 62.928 116 61.3016 116 59.6057V19.9612C116 19.9612 116 1 58.498 1C0.995941 1 1 19.9612 1 19.9612Z" fill="#FFE8AE" stroke="#DF1900" stroke-width="1.37146" stroke-miterlimit="10"/>
<path d="M16.0863 13.1875L16.8895 14.3408L18.2493 14.2992L17.4561 15.4577L17.9143 16.8084L16.6185 16.372L15.5443 17.25L15.5394 15.8162L14.416 15.0109L15.7069 14.559L16.0863 13.1875Z" fill="#DF1900"/>
<path d="M44.9608 7.09375L45.6582 8.33522L46.9993 8.41974L46.1215 9.52385L46.4629 10.9291L45.2241 10.3691L44.0926 11.1563L44.2048 9.70347L43.166 8.78426L44.4731 8.45144L44.9608 7.09375Z" fill="#DF1900"/>
<path d="M100.913 13.1875L100.11 14.3408L98.75 14.2992L99.5433 15.4577L99.085 16.8084L100.381 16.372L101.455 17.25L101.46 15.8162L102.583 15.0109L101.292 14.559L100.913 13.1875Z" fill="#DF1900"/>
<path d="M73.9546 7.09375L73.2572 8.33522L71.916 8.41974L72.7939 9.52385L72.4525 10.9291L73.6912 10.3691L74.8227 11.1563L74.7105 9.70347L75.7493 8.78426L74.4423 8.45144L73.9546 7.09375Z" fill="#DF1900"/>
<path d="M9.17775 37.5922C9.17775 38.6773 9.57131 39.1363 10.3584 38.9777C14.4475 38.1431 16.5019 37.7884 20.6146 37.1457C20.7884 37.1169 20.9664 37.1408 21.1279 37.2146C21.2895 37.2884 21.428 37.4092 21.5276 37.563C21.8004 37.9593 21.9391 38.4416 21.9212 38.9318C21.9394 39.4491 21.812 39.9605 21.5552 40.4008C21.464 40.5805 21.3349 40.7355 21.1778 40.8535C21.0208 40.9715 20.8401 41.0494 20.65 41.081C16.982 41.5442 13.3141 42.0909 9.6697 42.7169C8.54019 42.9047 7.66649 42.6334 7.04467 41.9198C6.42284 41.2062 6.108 40.1128 6.108 38.6147V30.189C5.95712 30.2492 5.79328 30.2632 5.63528 30.2292C5.47727 30.1953 5.33148 30.1148 5.21462 29.997C5.08352 29.8543 4.98214 29.684 4.91706 29.4971C4.85198 29.3102 4.82463 29.1108 4.8368 28.912C4.83235 28.4319 4.9595 27.9607 5.20281 27.5557C5.39641 27.1743 5.71171 26.8785 6.09225 26.7211C10.323 25.2354 14.5183 23.9042 18.8199 22.6522C18.9836 22.6023 19.1577 22.6055 19.3197 22.6612C19.4817 22.717 19.6242 22.8229 19.7291 22.9652C20.0029 23.3386 20.1424 23.8031 20.1226 24.2756C20.1358 24.7997 20.0104 25.3172 19.7606 25.7696C19.6674 25.9574 19.539 26.1232 19.3834 26.2566C19.2278 26.3901 19.0481 26.4885 18.8554 26.5458C14.9631 27.489 13.0268 28.0231 9.17382 29.2125L9.17775 37.5922ZM8.58348 50.8296C8.41085 50.8494 8.23633 50.8213 8.07698 50.7481C7.91763 50.675 7.7789 50.5593 7.67436 50.4123C7.41202 50.0561 7.27931 49.6117 7.30048 49.1603C7.29054 48.6879 7.41987 48.224 7.67042 47.8332C7.76863 47.6636 7.90046 47.5186 8.05676 47.4084C8.21306 47.2981 8.3901 47.2252 8.57561 47.1947C14.4449 46.4769 20.3194 45.8593 26.1992 45.3418C26.4198 45.3254 26.6404 45.3731 26.8373 45.4797C27.0343 45.5863 27.2001 45.7479 27.3169 45.9469C27.635 46.4477 27.7961 47.042 27.7773 47.6454C27.7773 51.6433 27.8088 53.6423 27.8324 57.6611C27.8513 58.2276 27.6967 58.7854 27.3917 59.2511C27.2741 59.4491 27.1117 59.6128 26.9192 59.7272C26.7268 59.8417 26.5103 59.9032 26.2897 59.9063C26.0683 59.9036 25.8508 59.8432 25.6566 59.7304C25.4624 59.6176 25.2973 59.4558 25.1759 59.2594C24.869 58.8065 24.7089 58.2604 24.7194 57.7028L24.6761 49.6194C19.3027 49.9365 13.9385 50.3399 8.58348 50.8296ZM27.7341 41.3857C27.7488 41.9634 27.5948 42.5318 27.2933 43.0132C27.1772 43.2206 27.0172 43.3964 26.8259 43.5268C26.6347 43.6572 26.4174 43.7385 26.1913 43.7644C25.9777 43.7846 25.7629 43.7451 25.5682 43.6499C25.3735 43.5547 25.2057 43.4072 25.0815 43.2219C24.767 42.7874 24.6055 42.2501 24.6249 41.7028C24.6249 38.1973 24.5935 36.4404 24.5738 32.9391C22.484 33.273 21.4253 33.4524 19.3552 33.8447C19.1847 33.8786 19.0087 33.8609 18.8473 33.7937C18.6858 33.7266 18.5454 33.6127 18.4421 33.465C18.1705 33.0888 18.0312 32.6238 18.0486 32.1504C18.0347 31.6349 18.1618 31.1262 18.4146 30.6856C18.5072 30.5012 18.6353 30.3394 18.7905 30.2108C18.9457 30.0821 19.1247 29.9894 19.3158 29.9386C21.4135 29.4879 22.4604 29.2792 24.562 28.912L24.5226 21.8885C24.5145 21.2987 24.6675 20.7189 24.9634 20.2193C25.077 19.9972 25.2323 19.8023 25.4198 19.6465C25.6074 19.4907 25.8231 19.3774 26.0536 19.3137C26.2568 19.2611 26.47 19.2726 26.6672 19.3468C26.8643 19.4209 27.0368 19.5544 27.1634 19.731C27.4826 20.1534 27.6462 20.6843 27.6239 21.225C27.6606 27.9383 27.6973 34.6585 27.7341 41.3857Z" fill="#DF1900"/>
<path d="M47.0675 41.6988C47.0675 44.2368 47.0675 45.5057 47.0675 48.0481C47.0869 48.676 46.9209 49.2952 46.5916 49.8229C46.4713 50.0419 46.2992 50.2256 46.0915 50.3568C45.8838 50.488 45.6473 50.5623 45.4042 50.5729C45.169 50.5674 44.9389 50.5001 44.7356 50.3773C44.5324 50.2545 44.3625 50.0802 44.2421 49.8709C43.9104 49.355 43.7399 48.7461 43.7536 48.1266V41.8209C39.4755 41.9953 37.3407 42.1131 33.0711 42.4183C32.8715 42.4266 32.6736 42.3766 32.5002 42.2741C32.3267 42.1715 32.1845 42.0205 32.09 41.8383C31.8012 41.3737 31.6544 40.8296 31.6689 40.2772C31.645 39.711 31.7702 39.1488 32.031 38.6506C32.1229 38.4542 32.2601 38.2842 32.4305 38.1557C32.6009 38.0272 32.7992 37.944 33.0079 37.9137C41.0461 37.277 49.0549 36.902 57.1184 36.7886C57.3258 36.8004 57.5264 36.8698 57.699 36.9895C57.8716 37.1092 58.0099 37.2747 58.0995 37.4689C58.3621 37.9875 58.4993 38.5643 58.4993 39.1499C58.4993 39.7355 58.3621 40.3124 58.0995 40.831C58.0104 41.0262 57.8723 41.193 57.6998 41.3142C57.5272 41.4354 57.3265 41.5064 57.1184 41.52C53.0846 41.5331 51.0887 41.5854 47.0675 41.6988ZM33.2942 32.9773C33.0972 32.3933 33.055 31.7654 33.1721 31.1588C33.2431 30.5865 33.4947 30.0545 33.8879 29.6456C36.7638 26.9812 38.2081 25.6381 41.0967 22.9737C41.2495 22.8269 41.4374 22.725 41.6408 22.6782C41.8443 22.6315 42.0562 22.6416 42.2546 22.7077C42.4761 22.7964 42.674 22.9383 42.8322 23.1218C42.9903 23.3053 43.1041 23.525 43.1641 23.763C43.361 24.3591 43.4016 24.9986 43.282 25.6163C43.2142 26.1867 42.9601 26.716 42.562 27.1164C39.7029 29.759 38.2671 31.0891 35.3996 33.736C35.2505 33.8935 35.0615 34.004 34.8544 34.055C34.6473 34.1059 34.4305 34.0951 34.229 34.0239C34.0048 33.9376 33.8034 33.7979 33.641 33.6161C33.4786 33.4343 33.3598 33.2154 33.2942 32.9773ZM55.3541 55.1823C55.5614 55.1925 55.762 55.2613 55.9342 55.3813C56.1064 55.5012 56.2436 55.6676 56.331 55.8625C56.6114 56.3732 56.7498 56.9543 56.731 57.5414C56.7487 58.1298 56.6103 58.712 56.331 59.2247C56.2436 59.4187 56.1069 59.5845 55.9356 59.7043C55.7643 59.8241 55.5648 59.8935 55.3583 59.905H38.1365C37.5707 59.9212 37.0106 59.7831 36.5125 59.5045C36.0144 59.2259 35.5957 58.8166 35.2985 58.3177C34.6192 57.2682 34.2753 55.7884 34.2669 53.8784L34.2585 48.5626C34.2359 47.9445 34.4008 47.3345 34.7301 46.8183C34.8518 46.6001 35.0233 46.416 35.2296 46.2822C35.4358 46.1485 35.6705 46.069 35.9133 46.0508C36.1492 46.0426 36.383 46.0987 36.5914 46.2135C36.7998 46.3283 36.9754 46.4978 37.1007 46.7049C37.4374 47.2052 37.6087 47.8049 37.5891 48.4144C37.5891 50.3636 37.5891 51.3404 37.6144 53.2941C37.6144 54.6517 38.0439 55.3233 38.9029 55.3087C44.3908 55.239 49.8802 55.1968 55.371 55.1823H55.3541ZM56.7858 31.6342C56.7249 31.8862 56.6111 32.1212 56.4524 32.3225C56.2937 32.5238 56.0941 32.6863 55.8678 32.7985C55.6776 32.8893 55.4668 32.9239 55.2588 32.8986C55.0507 32.8732 54.8535 32.7887 54.6888 32.6546C51.5898 30.1428 48.4359 27.6789 45.2316 25.3067C44.6109 24.8082 44.1298 24.1474 43.8378 23.3923C43.4641 22.4026 43.2852 21.3455 43.3115 20.2831V17.7495C43.2905 17.1303 43.4585 16.5199 43.7915 16.0052C43.9187 15.7888 44.0924 15.6058 44.2991 15.4704C44.5058 15.335 44.7399 15.2509 44.9832 15.2246C45.2134 15.2024 45.4452 15.2435 45.6552 15.3438C45.8652 15.4442 46.0458 15.6001 46.179 15.7959C46.5234 16.2807 46.6959 16.8736 46.6674 17.4748C46.6674 18.3251 46.6674 18.7525 46.6674 19.6072C46.6499 19.9927 46.7116 20.3777 46.8485 20.7366C46.9525 20.9872 47.1127 21.2085 47.3159 21.382C50.8613 23.9985 52.634 25.3939 56.1584 28.2328C56.5638 28.6245 56.8207 29.1535 56.8826 29.7241C57.012 30.3605 56.9844 31.0204 56.8026 31.6429L56.7858 31.6342Z" fill="#DF1900"/>
<path d="M69.7777 17.4287C70.8024 17.4994 71.791 17.8401 72.6458 18.4168C73.5678 19.0302 74.3658 19.8161 74.9973 20.7322C75.6948 21.7428 76.229 22.8593 76.5801 24.04C76.9706 25.3341 77.1629 26.6812 77.1504 28.0343L77.0761 45.5527C77.0807 46.8842 76.8785 48.2081 76.4768 49.4759C76.1245 50.6036 75.5835 51.6615 74.8775 52.6036C74.2414 53.4553 73.4414 54.1674 72.526 54.6971C71.6586 55.1973 70.6765 55.4572 69.6785 55.4507C68.6782 55.448 67.6966 55.1748 66.8353 54.6594C65.9196 54.1119 65.1237 53.381 64.4962 52.5115C63.7919 51.5325 63.2567 50.4395 62.9133 49.2791C62.5151 47.9722 62.32 46.6105 62.3348 45.2429V27.2974C62.32 25.7257 62.5903 24.1645 63.1324 22.6917C63.287 22.1825 63.6348 21.7563 64.0994 21.5068C64.3017 21.4168 64.5276 21.3963 64.7425 21.4485C64.9574 21.5006 65.1495 21.6226 65.2896 21.7957C65.7029 22.2239 65.972 22.7734 66.0583 23.3658C66.164 24.0057 66.1027 24.6624 65.8806 25.2709C65.6479 26.0151 65.539 26.7934 65.5583 27.5738C65.5583 33.4048 65.5486 39.2387 65.5293 45.0754C65.5213 45.8586 65.6271 46.6388 65.8434 47.3908C66.028 48.0516 66.3245 48.675 66.7195 49.2331C67.0723 49.7363 67.5205 50.1633 68.0379 50.4892C68.5368 50.7942 69.1082 50.9562 69.6909 50.9581C70.2693 50.9734 70.8408 50.8286 71.344 50.5394C71.8615 50.2351 72.3128 49.8277 72.6706 49.3419C73.0672 48.7998 73.3678 48.192 73.5591 47.5457C73.777 46.8082 73.8856 46.042 73.8815 45.2722L73.9104 27.9883C73.9189 27.2094 73.8145 26.4335 73.6005 25.6854C73.4128 25.0133 73.1153 24.3779 72.7202 23.8055C72.3654 23.2864 71.9167 22.8403 71.3977 22.4908C70.9042 22.1626 70.3341 21.972 69.7447 21.9381L68.1908 21.8543C66.8394 21.7832 65.7856 20.9751 65.0251 19.405C64.7271 18.8103 64.597 18.1438 64.6491 17.4789C64.6723 16.8523 64.8891 16.249 65.269 15.7539C65.3965 15.5481 65.5855 15.3889 65.8084 15.2993C66.0314 15.2097 66.2767 15.1944 66.5088 15.2557C66.7501 15.3305 66.9713 15.4604 67.1554 15.6353C67.3395 15.8102 67.4816 16.0255 67.5709 16.2647C67.71 16.5596 67.8972 16.8285 68.1247 17.0602C68.3256 17.2553 68.5904 17.3686 68.8685 17.3785L69.7777 17.4287ZM85.1389 55.5763C85.1539 56.1577 84.9844 56.7286 84.6554 57.2051C84.5316 57.4062 84.3601 57.5729 84.1566 57.6898C83.9531 57.8068 83.7239 57.8705 83.49 57.875C83.2559 57.8697 83.0269 57.8043 82.8246 57.6849C82.6222 57.5655 82.453 57.3961 82.3328 57.1925C82.01 56.7062 81.848 56.1285 81.87 55.5428L82.0559 18.4294C82.0312 17.8642 82.2006 17.3079 82.5353 16.8551C82.6651 16.6692 82.8443 16.5244 83.052 16.4377C83.2598 16.351 83.4877 16.3258 83.709 16.3652C83.9531 16.4156 84.1834 16.5192 84.384 16.6689C84.5845 16.8185 84.7505 17.0107 84.8703 17.2319C85.1861 17.7433 85.347 18.3372 85.3332 18.9402L85.1389 55.5763Z" fill="#DF1900"/>
<path d="M92.7934 56.5144C92.2576 56.5229 91.7287 56.387 91.2578 56.1197C90.7869 55.8525 90.3899 55.4629 90.1051 54.9887C89.4671 53.9912 89.1581 52.5954 89.1662 50.7973L89.3227 23.2681C89.2999 22.7272 89.4589 22.1949 89.772 21.7634C89.8982 21.5871 90.0712 21.4533 90.2695 21.3788C90.4678 21.3043 90.6827 21.2923 90.8875 21.3443C91.1228 21.4065 91.3428 21.5201 91.533 21.6776C91.7232 21.8351 91.8793 22.0329 91.9909 22.258C92.2845 22.7625 92.4335 23.3444 92.4203 23.9346L92.2718 50.5333C92.2718 51.7613 92.673 52.3942 93.4755 52.432C96.1438 52.5661 97.488 52.6373 100.144 52.7966C100.334 52.8151 100.518 52.8806 100.679 52.9878C100.84 53.0949 100.974 53.2406 101.071 53.4127C101.331 53.8295 101.461 54.3199 101.444 54.8169C101.456 55.3071 101.316 55.7882 101.043 56.1875C100.944 56.3518 100.807 56.4872 100.644 56.5811C100.481 56.6749 100.298 56.7241 100.112 56.724C97.2071 56.6234 95.7305 56.5982 92.7934 56.5144ZM106.014 57.4742C106.029 57.9824 105.871 58.4795 105.569 58.8783C105.444 59.0557 105.281 59.2 105.093 59.2997C104.904 59.3994 104.697 59.4518 104.486 59.4526C104.272 59.449 104.063 59.3919 103.875 59.2861C103.687 59.1804 103.526 59.029 103.406 58.8448C103.108 58.4254 102.954 57.9128 102.969 57.3904L103.041 40.3356C101.392 40.0547 100.57 39.9164 98.9164 39.6649C98.7205 39.6268 98.5355 39.5424 98.3755 39.4182C98.2156 39.294 98.0849 39.1332 97.9935 38.9482C97.7348 38.5015 97.6052 37.9863 97.6204 37.4644C97.6057 36.979 97.7469 36.5025 98.0216 36.1106C98.1207 35.9535 98.2616 35.8301 98.427 35.7556C98.5924 35.6811 98.7751 35.6588 98.9525 35.6915C100.602 35.9933 101.428 36.1525 103.073 36.4878C103.093 32.0366 103.101 29.8109 103.121 25.3597C103.106 25.1212 103.138 24.882 103.214 24.6565C103.289 24.431 103.408 24.2239 103.563 24.0478C103.698 23.9002 103.871 23.7976 104.062 23.7529C104.253 23.7081 104.452 23.7232 104.634 23.7963C105.082 23.9688 105.454 24.3055 105.681 24.7435C105.963 25.2085 106.112 25.748 106.111 26.2985C106.079 36.6904 106.045 47.0823 106.01 57.4742H106.014ZM112.165 58.0443C112.177 58.5287 112.014 58.9999 111.708 59.3645C111.575 59.5358 111.407 59.6735 111.216 59.7673C111.025 59.8611 110.816 59.9086 110.605 59.9062C110.394 59.9037 110.186 59.8515 109.997 59.7534C109.808 59.6552 109.643 59.5137 109.513 59.3394C109.209 58.9512 109.048 58.462 109.06 57.9604C109.081 47.6719 109.1 37.382 109.116 27.0907C109.101 26.8673 109.133 26.6431 109.211 26.4344C109.289 26.2256 109.41 26.0375 109.565 25.8836C109.713 25.7539 109.892 25.6702 110.083 25.6421C110.274 25.6139 110.469 25.6424 110.645 25.7243C111.094 25.9102 111.472 26.2462 111.72 26.68C112.006 27.1223 112.161 27.6427 112.165 28.1763V58.0443Z" fill="#DF1900"/>
</svg>
