<svg width="135" height="83" viewBox="0 0 135 83" fill="none" xmlns="http://www.w3.org/2000/svg">
<g filter="url(#filter0-d-370-535)">
<path d="M10 24.6695V63.7041C10 65.3739 10.6419 66.9753 11.7844 68.156C12.9269 69.3367 14.4764 70 16.0922 70H118.908C120.524 70 122.073 69.3367 123.216 68.156C124.358 66.9753 125 65.3739 125 63.7041V24.6695C125 24.6695 125 6 67.498 6C9.99594 6 10 24.6695 10 24.6695Z" fill="#FFE8AE"/>
<path d="M10 24.6695V63.7041C10 65.3739 10.6419 66.9753 11.7844 68.156C12.9269 69.3367 14.4764 70 16.0922 70H118.908C120.524 70 122.073 69.3367 123.216 68.156C124.358 66.9753 125 65.3739 125 63.7041V24.6695C125 24.6695 125 6 67.498 6C9.99594 6 10 24.6695 10 24.6695Z" stroke="#DF1900" stroke-width="1.12384" stroke-miterlimit="10"/>
</g>
<path d="M25.0863 18L25.8895 19.1356L27.2493 19.0946L26.4561 20.2353L26.9143 21.5652L25.6185 21.1356L24.5443 22L24.5394 20.5882L23.416 19.7954L24.7069 19.3504L25.0863 18Z" fill="#DF1900"/>
<path d="M53.9608 12L54.6582 13.2224L55.9993 13.3056L55.1215 14.3927L55.4629 15.7763L54.2241 15.225L53.0926 16L53.2048 14.5696L52.166 13.6645L53.4731 13.3368L53.9608 12Z" fill="#DF1900"/>
<path d="M109.909 18L109.106 19.1356L107.746 19.0946L108.539 20.2353L108.081 21.5652L109.377 21.1356L110.451 22L110.456 20.5882L111.579 19.7954L110.289 19.3504L109.909 18Z" fill="#DF1900"/>
<path d="M82.9546 12L82.2572 13.2224L80.916 13.3056L81.7939 14.3927L81.4525 15.7763L82.6912 15.225L83.8227 16L83.7105 14.5696L84.7493 13.6645L83.4423 13.3368L82.9546 12Z" fill="#DF1900"/>
<path d="M18.1778 42.0293C18.1778 43.0976 18.5713 43.5496 19.3584 43.3935C23.4475 42.5717 25.5019 42.2224 29.6146 41.5896C29.7884 41.5612 29.9664 41.5847 30.1279 41.6575C30.2895 41.7302 30.428 41.8491 30.5276 42.0005C30.8004 42.3907 30.9391 42.8656 30.9212 43.3483C30.9394 43.8576 30.812 44.3611 30.5552 44.7946C30.464 44.9716 30.3349 45.1241 30.1778 45.2403C30.0208 45.3565 29.8401 45.4332 29.65 45.4644C25.982 45.9205 22.3141 46.4588 18.6697 47.0751C17.5402 47.26 16.6665 46.9929 16.0447 46.2903C15.4228 45.5877 15.108 44.5111 15.108 43.036V34.7399C14.9571 34.7993 14.7933 34.813 14.6353 34.7796C14.4773 34.7461 14.3315 34.6669 14.2146 34.5509C14.0835 34.4104 13.9821 34.2427 13.9171 34.0586C13.852 33.8746 13.8246 33.6784 13.8368 33.4826C13.8323 33.0098 13.9595 32.5459 14.2028 32.1472C14.3964 31.7717 14.7117 31.4803 15.0923 31.3254C19.323 29.8626 23.5183 28.5518 27.8199 27.3191C27.9836 27.27 28.1577 27.2731 28.3197 27.328C28.4817 27.3829 28.6242 27.4871 28.7291 27.6273C29.0029 27.9949 29.1424 28.4523 29.1226 28.9175C29.1358 29.4335 29.0104 29.9431 28.7606 30.3885C28.6674 30.5735 28.539 30.7367 28.3834 30.8681C28.2278 30.9995 28.0481 31.0964 27.8554 31.1528C23.9631 32.0814 22.0268 32.6074 18.1738 33.7784L18.1778 42.0293ZM17.5835 55.063C17.4108 55.0824 17.2363 55.0548 17.077 54.9828C16.9176 54.9108 16.7789 54.7968 16.6744 54.6521C16.412 54.3014 16.2793 53.8638 16.3005 53.4194C16.2905 52.9542 16.4199 52.4975 16.6704 52.1127C16.7686 51.9457 16.9005 51.8029 17.0568 51.6944C17.2131 51.5858 17.3901 51.5141 17.5756 51.484C23.4449 50.7773 29.3194 50.1692 35.1992 49.6597C35.4198 49.6435 35.6404 49.6904 35.8373 49.7954C36.0343 49.9004 36.2001 50.0594 36.3169 50.2555C36.635 50.7485 36.7961 51.3337 36.7773 51.9278C36.7773 55.8642 36.8088 57.8324 36.8324 61.7894C36.8513 62.3472 36.6967 62.8964 36.3917 63.3549C36.2741 63.5499 36.1117 63.711 35.9192 63.8237C35.7268 63.9364 35.5103 63.997 35.2897 64C35.0682 63.9974 34.8508 63.9379 34.6566 63.8268C34.4624 63.7158 34.2973 63.5565 34.1759 63.3631C33.869 62.9172 33.7089 62.3794 33.7194 61.8305L33.6761 53.8714C28.3027 54.1836 22.9385 54.5808 17.5835 55.063ZM36.7341 45.7643C36.7488 46.3332 36.5948 46.8929 36.2933 47.3668C36.1772 47.571 36.0172 47.7441 35.8259 47.8725C35.6347 48.0009 35.4174 48.081 35.1913 48.1065C34.9777 48.1263 34.7629 48.0875 34.5682 47.9938C34.3735 47.9001 34.2057 47.7547 34.0815 47.5723C33.767 47.1445 33.6055 46.6155 33.6249 46.0766C33.6249 42.6251 33.5935 40.8952 33.5738 37.4478C31.484 37.7765 30.4253 37.9532 28.3552 38.3394C28.1847 38.3727 28.0087 38.3553 27.8473 38.2892C27.6858 38.2231 27.5454 38.1109 27.4421 37.9655C27.1704 37.5951 27.0312 37.1373 27.0486 36.6712C27.0347 36.1636 27.1618 35.6627 27.4146 35.2289C27.5072 35.0473 27.6353 34.8881 27.7905 34.7614C27.9457 34.6347 28.1247 34.5434 28.3158 34.4934C30.4135 34.0496 31.4604 33.8442 33.562 33.4826L33.5226 26.5672C33.5144 25.9864 33.6675 25.4155 33.9634 24.9236C34.077 24.7049 34.2323 24.513 34.4198 24.3596C34.6074 24.2062 34.8231 24.0947 35.0536 24.0319C35.2568 23.9802 35.47 23.9915 35.6672 24.0645C35.8643 24.1375 36.0368 24.269 36.1634 24.4428C36.4826 24.8587 36.6462 25.3814 36.6239 25.9139C36.6606 32.5238 36.6973 39.1407 36.7341 45.7643Z" fill="#DF1900"/>
<path d="M56.0675 46.0736C56.0675 48.5725 56.0675 49.822 56.0675 52.3252C56.0869 52.9435 55.9209 53.5532 55.5916 54.0727C55.4713 54.2883 55.2992 54.4692 55.0915 54.5984C54.8838 54.7276 54.6473 54.8008 54.4042 54.8113C54.169 54.8058 53.9389 54.7395 53.7356 54.6186C53.5324 54.4977 53.3625 54.3261 53.2421 54.12C52.9104 53.6121 52.7399 53.0125 52.7536 52.4025V46.1939C48.4755 46.3656 46.3407 46.4815 42.0711 46.7821C41.8715 46.7903 41.6736 46.7411 41.5002 46.6401C41.3267 46.5391 41.1845 46.3904 41.09 46.211C40.8012 45.7535 40.6544 45.2178 40.6689 44.6739C40.645 44.1164 40.7702 43.5629 41.031 43.0724C41.1229 42.8789 41.2601 42.7116 41.4305 42.585C41.6009 42.4585 41.7992 42.3766 42.0079 42.3467C50.0461 41.7198 58.0549 41.3506 66.1184 41.239C66.3258 41.2506 66.5264 41.3189 66.699 41.4368C66.8716 41.5546 67.0099 41.7176 67.0995 41.9088C67.3622 42.4194 67.4994 42.9874 67.4994 43.564C67.4994 44.1406 67.3622 44.7086 67.0995 45.2192C67.0104 45.4114 66.8723 45.5756 66.6998 45.695C66.5272 45.8143 66.3265 45.8842 66.1184 45.8976C62.0846 45.9105 60.0887 45.962 56.0675 46.0736ZM42.2942 37.4863C42.0972 36.9113 42.055 36.293 42.1721 35.6958C42.2431 35.1323 42.4947 34.6085 42.8879 34.2059C45.7638 31.5825 47.2081 30.26 50.0967 27.6366C50.2495 27.4921 50.4374 27.3917 50.6408 27.3457C50.8443 27.2997 51.0562 27.3097 51.2546 27.3747C51.4761 27.462 51.674 27.6018 51.8322 27.7825C51.9903 27.9631 52.1041 28.1795 52.1641 28.4138C52.361 29.0007 52.4016 29.6304 52.282 30.2386C52.2142 30.8002 51.9601 31.3214 51.562 31.7156C48.7029 34.3176 47.2671 35.6271 44.3996 38.2334C44.2505 38.3884 44.0615 38.4973 43.8544 38.5474C43.6473 38.5976 43.4305 38.5869 43.229 38.5168C43.0048 38.4318 42.8034 38.2943 42.641 38.1153C42.4786 37.9362 42.3598 37.7208 42.2942 37.4863ZM64.3541 59.3497C64.5614 59.3598 64.762 59.4275 64.9342 59.5456C65.1064 59.6637 65.2436 59.8276 65.331 60.0195C65.6114 60.5223 65.7498 61.0944 65.731 61.6725C65.7487 62.2519 65.6103 62.8251 65.331 63.3299C65.2436 63.5209 65.1069 63.6841 64.9356 63.8021C64.7643 63.9201 64.5648 63.9884 64.3583 63.9997H47.1365C46.5707 64.0157 46.0106 63.8797 45.5125 63.6054C45.0144 63.3311 44.5957 62.9281 44.2985 62.4368C43.6192 61.4035 43.2753 59.9465 43.2669 58.0659L43.2585 52.8319C43.2359 52.2232 43.4008 51.6226 43.7301 51.1144C43.8518 50.8995 44.0233 50.7183 44.2296 50.5866C44.4358 50.4548 44.6705 50.3766 44.9133 50.3587C45.1492 50.3506 45.383 50.4058 45.5914 50.5189C45.7998 50.6319 45.9754 50.7988 46.1007 51.0028C46.4374 51.4954 46.6087 52.0858 46.5891 52.6859C46.5891 54.6052 46.5891 55.5669 46.6144 57.4905C46.6144 58.8273 47.0439 59.4885 47.9029 59.4742C53.3908 59.4055 58.8802 59.364 64.371 59.3497H64.3541ZM65.7858 36.1638C65.7249 36.412 65.6111 36.6434 65.4524 36.8416C65.2937 37.0398 65.0941 37.1998 64.8678 37.3102C64.6776 37.3997 64.4668 37.4338 64.2588 37.4088C64.0507 37.3838 63.8535 37.3006 63.6888 37.1686C60.5898 34.6954 57.4359 32.2695 54.2316 29.9337C53.6109 29.4429 53.1298 28.7923 52.8378 28.0488C52.4641 27.0743 52.2852 26.0334 52.3115 24.9874V22.4928C52.2905 21.8831 52.4585 21.2821 52.7915 20.7753C52.9187 20.5623 53.0924 20.382 53.2991 20.2487C53.5058 20.1154 53.7399 20.0326 53.9832 20.0067C54.2134 19.9849 54.4452 20.0254 54.6552 20.1242C54.8652 20.2229 55.0458 20.3764 55.179 20.5692C55.5234 21.0465 55.6959 21.6304 55.6674 22.2223C55.6674 23.0595 55.6674 23.4803 55.6674 24.3219C55.6499 24.7015 55.7116 25.0805 55.8485 25.4339C55.9525 25.6807 56.1127 25.8985 56.3159 26.0694C59.8613 28.6456 61.634 30.0196 65.1584 32.8148C65.5638 33.2005 65.8207 33.7213 65.8826 34.2832C66.012 34.9098 65.9844 35.5595 65.8026 36.1724L65.7858 36.1638Z" fill="#DF1900"/>
<path d="M78.7777 22.1769C79.8024 22.2466 80.791 22.5819 81.6458 23.1499C82.5678 23.7538 83.3658 24.5276 83.9973 25.4296C84.6948 26.4246 85.229 27.524 85.5801 28.6865C85.9705 29.9607 86.1629 31.2871 86.1504 32.6194L86.0761 49.8682C86.0807 51.1792 85.8785 52.4828 85.4768 53.7311C85.1245 54.8414 84.5835 55.8831 83.8775 56.8107C83.2414 57.6492 82.4414 58.3505 81.526 58.8719C80.6586 59.3644 79.6765 59.6204 78.6785 59.614C77.6782 59.6113 76.6966 59.3423 75.8353 58.8348C74.9196 58.2958 74.1237 57.5762 73.4962 56.72C72.7919 55.756 72.2567 54.6799 71.9133 53.5373C71.5151 52.2505 71.32 50.9098 71.3348 49.5632V31.8938C71.32 30.3462 71.5903 28.8091 72.1324 27.359C72.287 26.8576 72.6348 26.438 73.0994 26.1923C73.3017 26.1037 73.5276 26.0835 73.7425 26.1348C73.9574 26.1862 74.1495 26.3063 74.2896 26.4768C74.7029 26.8983 74.972 27.4394 75.0583 28.0227C75.164 28.6528 75.1027 29.2994 74.8806 29.8985C74.6479 30.6313 74.539 31.3975 74.5583 32.1659C74.5583 37.9073 74.5486 43.6514 74.5293 49.3983C74.5213 50.1695 74.6271 50.9376 74.8434 51.6781C75.028 52.3287 75.3245 52.9425 75.7195 53.492C76.0723 53.9875 76.5205 54.4079 77.0379 54.7288C77.5368 55.0291 78.1082 55.1887 78.6909 55.1905C79.2693 55.2055 79.8408 55.063 80.344 54.7782C80.8615 54.4786 81.3128 54.0775 81.6706 53.5992C82.0672 53.0654 82.3678 52.467 82.5591 51.8306C82.777 51.1044 82.8856 50.35 82.8815 49.592L82.9104 32.5741C82.9189 31.8072 82.8145 31.0432 82.6005 30.3066C82.4128 29.6449 82.1153 29.0192 81.7202 28.4556C81.3654 27.9446 80.9167 27.5053 80.3977 27.1611C79.9042 26.838 79.3341 26.6503 78.7447 26.6169L77.1908 26.5345C75.8394 26.4644 74.7856 25.6687 74.0251 24.1228C73.7271 23.5373 73.597 22.881 73.6491 22.2264C73.6723 21.6094 73.8891 21.0153 74.269 20.5279C74.3965 20.3253 74.5855 20.1685 74.8084 20.0803C75.0314 19.9921 75.2767 19.977 75.5088 20.0373C75.7501 20.111 75.9713 20.2389 76.1554 20.4111C76.3395 20.5834 76.4816 20.7954 76.5709 21.0309C76.71 21.3212 76.8972 21.586 77.1247 21.8141C77.3256 22.0062 77.5904 22.1178 77.8685 22.1275L78.7777 22.1769ZM94.1389 59.7377C94.1539 60.3101 93.9844 60.8722 93.6554 61.3414C93.5316 61.5394 93.3601 61.7035 93.1566 61.8187C92.9531 61.9339 92.7239 61.9965 92.49 62.001C92.2559 61.9957 92.0269 61.9313 91.8246 61.8138C91.6222 61.6963 91.453 61.5295 91.3328 61.329C91.01 60.8501 90.848 60.2814 90.87 59.7047L91.0559 23.1622C91.0312 22.6058 91.2006 22.058 91.5353 21.6121C91.6651 21.4291 91.8443 21.2865 92.052 21.2012C92.2598 21.1158 92.4877 21.091 92.709 21.1298C92.9531 21.1794 93.1834 21.2814 93.384 21.4288C93.5845 21.5762 93.7505 21.7653 93.8703 21.9832C94.1861 22.4867 94.347 23.0714 94.3332 23.6652L94.1389 59.7377Z" fill="#DF1900"/>
<path d="M101.793 60.6603C101.258 60.6687 100.729 60.5348 100.258 60.2717C99.7869 60.0086 99.3899 59.625 99.1051 59.1581C98.4671 58.1759 98.1581 56.8016 98.1662 55.0312L98.3227 27.9256C98.2999 27.3929 98.4589 26.8689 98.772 26.444C98.8982 26.2703 99.0712 26.1387 99.2695 26.0653C99.4678 25.9919 99.6827 25.9801 99.8875 26.0313C100.123 26.0926 100.343 26.2044 100.533 26.3595C100.723 26.5146 100.879 26.7093 100.991 26.931C101.284 27.4277 101.433 28.0006 101.42 28.5817L101.272 54.7712C101.272 55.9804 101.673 56.6036 102.476 56.6407C105.144 56.7728 106.488 56.8429 109.144 56.9997C109.334 57.018 109.518 57.0825 109.679 57.188C109.84 57.2935 109.974 57.4369 110.071 57.6064C110.331 58.0167 110.461 58.4995 110.444 58.9889C110.456 59.4716 110.316 59.9453 110.043 60.3384C109.944 60.5003 109.807 60.6336 109.644 60.726C109.481 60.8184 109.298 60.8668 109.112 60.8667C106.207 60.7676 104.731 60.7429 101.793 60.6603ZM115.014 61.6054C115.029 62.1057 114.871 62.5952 114.569 62.9879C114.444 63.1625 114.281 63.3046 114.093 63.4028C113.904 63.501 113.697 63.5525 113.486 63.5533C113.272 63.5498 113.063 63.4936 112.875 63.3894C112.687 63.2853 112.526 63.1363 112.406 62.9549C112.108 62.5419 111.954 62.0373 111.969 61.5228L112.041 44.7304C110.392 44.4539 109.57 44.3177 107.916 44.0701C107.72 44.0325 107.535 43.9494 107.376 43.8271C107.216 43.7048 107.085 43.5466 106.994 43.3644C106.735 42.9246 106.605 42.4172 106.62 41.9035C106.606 41.4255 106.747 40.9563 107.022 40.5705C107.121 40.4157 107.262 40.2942 107.427 40.2209C107.592 40.1476 107.775 40.1256 107.953 40.1578C109.602 40.4549 110.428 40.6117 112.073 40.9419C112.093 36.5591 112.101 34.3677 112.121 29.9849C112.106 29.7501 112.138 29.5146 112.214 29.2926C112.289 29.0705 112.408 28.8666 112.563 28.6932C112.698 28.5479 112.871 28.4469 113.062 28.4028C113.253 28.3588 113.452 28.3736 113.634 28.4456C114.082 28.6155 114.454 28.947 114.681 29.3782C114.963 29.8361 115.112 30.3673 115.111 30.9093C115.079 41.1413 115.045 51.3734 115.01 61.6054H115.014ZM121.165 62.1666C121.177 62.6436 121.014 63.1076 120.708 63.4666C120.575 63.6353 120.407 63.7709 120.216 63.8632C120.025 63.9556 119.816 64.0023 119.605 63.9999C119.394 63.9975 119.186 63.9461 118.997 63.8495C118.808 63.7528 118.643 63.6135 118.513 63.4419C118.209 63.0597 118.048 62.5779 118.06 62.0841C118.081 51.9539 118.1 41.8223 118.116 31.6893C118.101 31.4693 118.133 31.2486 118.211 31.0431C118.289 30.8375 118.41 30.6523 118.565 30.5008C118.713 30.3731 118.892 30.2907 119.083 30.2629C119.274 30.2352 119.469 30.2633 119.645 30.3439C120.094 30.5269 120.472 30.8578 120.72 31.2849C121.006 31.7204 121.161 32.2328 121.165 32.7582V62.1666Z" fill="#DF1900"/>
<defs>
<filter id="filter0-d-370-535" x="0.730903" y="0.21403" width="133.538" height="82.5372" filterUnits="userSpaceOnUse" color-interpolation-filters="sRGB">
<feFlood flood-opacity="0" result="BackgroundImageFix"/>
<feColorMatrix in="SourceAlpha" type="matrix" values="0 0 0 0 0 0 0 0 0 0 0 0 0 0 0 0 0 0 127 0" result="hardAlpha"/>
<feOffset dy="3.48264"/>
<feGaussianBlur stdDeviation="4.3533"/>
<feComposite in2="hardAlpha" operator="out"/>
<feColorMatrix type="matrix" values="0 0 0 0 0 0 0 0 0 0 0 0 0 0 0 0 0 0 0.5 0"/>
<feBlend mode="normal" in2="BackgroundImageFix" result="effect1-dropShadow-370-535"/>
<feBlend mode="normal" in="SourceGraphic" in2="effect1-dropShadow-370-535" result="shape"/>
</filter>
</defs>
</svg>
