<svg width="390" height="17" viewBox="0 0 390 17" fill="none" xmlns="http://www.w3.org/2000/svg">
<path fill-rule="evenodd" clip-rule="evenodd" d="M23 0H0V12.5V13H0.0701868C0.70581 15.25 5.58063 17 11.5 17C17.4194 17 22.2942 15.25 22.9298 13H23V12.5V0Z" fill="#DF1900"/>
<path fill-rule="evenodd" clip-rule="evenodd" d="M69 0H46V12.5V13H46.0702C46.7058 15.25 51.5806 17 57.5 17C63.4194 17 68.2942 15.25 68.9298 13H69V12.5V0Z" fill="#DF1900"/>
<path fill-rule="evenodd" clip-rule="evenodd" d="M115 0H92V12.5V13H92.0702C92.7058 15.25 97.5806 17 103.5 17C109.419 17 114.294 15.25 114.93 13H115V12.5V0Z" fill="#DF1900"/>
<path fill-rule="evenodd" clip-rule="evenodd" d="M161 0H138V12.5V13H138.07C138.706 15.25 143.581 17 149.5 17C155.419 17 160.294 15.25 160.93 13H161V12.5V0Z" fill="#DF1900"/>
<path fill-rule="evenodd" clip-rule="evenodd" d="M207 0H184V12.5V13H184.07C184.706 15.25 189.581 17 195.5 17C201.419 17 206.294 15.25 206.93 13H207V12.5V0Z" fill="#DF1900"/>
<path fill-rule="evenodd" clip-rule="evenodd" d="M252 0H229V12.5V13H229.07C229.706 15.25 234.581 17 240.5 17C246.419 17 251.294 15.25 251.93 13H252V12.5V0Z" fill="#DF1900"/>
<path fill-rule="evenodd" clip-rule="evenodd" d="M298 0H275V12.5V13H275.07C275.706 15.25 280.581 17 286.5 17C292.419 17 297.294 15.25 297.93 13H298V12.5V0Z" fill="#DF1900"/>
<path fill-rule="evenodd" clip-rule="evenodd" d="M344 0H321V12.5V13H321.07C321.706 15.25 326.581 17 332.5 17C338.419 17 343.294 15.25 343.93 13H344V12.5V0Z" fill="#DF1900"/>
<path fill-rule="evenodd" clip-rule="evenodd" d="M390 0H367V12.5V13H367.07C367.706 15.25 372.581 17 378.5 17C384.419 17 389.294 15.25 389.93 13H390V12.5V0Z" fill="#DF1900"/>
<path fill-rule="evenodd" clip-rule="evenodd" d="M46 0H23V12.5V13H23.0702C23.7058 15.25 28.5806 17 34.5 17C40.4194 17 45.2942 15.25 45.9298 13H46V12.5V0Z" fill="#022CFF"/>
<path fill-rule="evenodd" clip-rule="evenodd" d="M92 0H69V12.5V13H69.0702C69.7058 15.25 74.5806 17 80.5 17C86.4194 17 91.2942 15.25 91.9298 13H92V12.5V0Z" fill="#022CFF"/>
<path fill-rule="evenodd" clip-rule="evenodd" d="M138 0H115V12.5V13H115.07C115.706 15.25 120.581 17 126.5 17C132.419 17 137.294 15.25 137.93 13H138V12.5V0Z" fill="#022CFF"/>
<path fill-rule="evenodd" clip-rule="evenodd" d="M184 0H161V12.5V13H161.07C161.706 15.25 166.581 17 172.5 17C178.419 17 183.294 15.25 183.93 13H184V12.5V0Z" fill="#022CFF"/>
<path fill-rule="evenodd" clip-rule="evenodd" d="M229 0H206V12.5V13H206.07C206.706 15.25 211.581 17 217.5 17C223.419 17 228.294 15.25 228.93 13H229V12.5V0Z" fill="#022CFF"/>
<path fill-rule="evenodd" clip-rule="evenodd" d="M275 0H252V12.5V13H252.07C252.706 15.25 257.581 17 263.5 17C269.419 17 274.294 15.25 274.93 13H275V12.5V0Z" fill="#022CFF"/>
<path fill-rule="evenodd" clip-rule="evenodd" d="M321 0H298V12.5V13H298.07C298.706 15.25 303.581 17 309.5 17C315.419 17 320.294 15.25 320.93 13H321V12.5V0Z" fill="#022CFF"/>
<path fill-rule="evenodd" clip-rule="evenodd" d="M367 0H344V12.5V13H344.07C344.706 15.25 349.581 17 355.5 17C361.419 17 366.294 15.25 366.93 13H367V12.5V0Z" fill="#022CFF"/>
</svg>
