<svg width="252" height="135" viewBox="0 0 252 135" fill="none" xmlns="http://www.w3.org/2000/svg">
<path d="M2 40.214V120.113C1.99996 121.812 2.34046 123.495 3.0019 125.064C3.66334 126.633 4.63265 128.058 5.85401 129.256C7.07538 130.454 8.52468 131.401 10.1185 132.044C11.7123 132.686 13.419 133.011 15.1406 133H236.859C238.581 133.011 240.288 132.686 241.882 132.044C243.475 131.401 244.925 130.454 246.146 129.256C247.367 128.058 248.337 126.633 248.998 125.064C249.66 123.495 250 121.812 250 120.113V40.214C250 40.214 250.017 2 126 2C1.9826 2 2 40.214 2 40.214Z" fill="#FFE8AE" stroke="#DF1900" stroke-width="4" stroke-miterlimit="10"/>
<path d="M35.1215 30.2051L36.6096 32.2154L39.1333 32.1381L37.6626 34.1571L38.5067 36.5025L36.1048 35.7379L34.112 37.2671L34.1033 34.7756L32.0234 33.3753L34.4166 32.5935L35.1215 30.2051Z" fill="#DF1900"/>
<path d="M97.0592 17.9541L98.3646 20.0847L100.88 20.2222L99.2348 22.1123L99.8788 24.5178L97.5553 23.5556L95.4319 24.9044L95.6407 22.4216L93.6914 20.8494L96.1368 20.2737L97.0592 17.9541Z" fill="#DF1900"/>
<path d="M215.753 30.2051L214.265 32.2154L211.75 32.1381L213.221 34.1571L212.368 36.5025L214.77 35.7379L216.763 37.2671L216.771 34.7756L218.851 33.3753L216.458 32.5935L215.753 30.2051Z" fill="#DF1900"/>
<path d="M156.518 19.2012L155.212 21.3318L152.697 21.4693L154.342 23.3508L153.698 25.7649L156.022 24.8027L158.145 26.1429L157.936 23.6686L159.885 22.0878L157.431 21.5208L156.518 19.2012Z" fill="#DF1900"/>
<path d="M19.7644 75.4647C19.7644 77.6469 20.6868 78.6435 22.3751 78.317C31.4342 76.6245 35.942 75.8857 45.0795 74.5454C46.6547 74.3135 47.9252 75.9114 47.9339 78.2311C47.9426 80.5507 46.7069 82.4666 45.123 82.6556C37.0124 83.6178 28.9018 84.7347 20.8434 86.0234C15.857 86.8052 13.0113 83.7381 13.0113 77.5782C13.0113 70.6364 13.0113 67.1741 13.0113 60.2324C11.4536 60.7049 10.2266 59.5794 10.2266 57.5777C10.2266 55.5759 11.4536 53.6343 13.0026 53.093C22.2967 50.0259 31.5909 47.2681 41.0851 44.7079C42.6603 44.3127 43.9221 45.7561 43.9308 48.0499C43.9395 50.3438 42.7038 52.3628 41.1635 52.6892C32.5568 54.6309 28.2753 55.7305 19.7557 58.1877L19.7644 75.4647ZM18.4503 102.716C16.8752 102.854 15.622 101.324 15.6133 99.2797C15.6046 97.235 16.8578 95.4308 18.4329 95.2332C31.411 93.7555 44.4007 92.484 57.4021 91.4187C59.3253 91.2726 60.883 93.3775 60.883 96.1697C60.883 104.4 60.9526 108.515 61.0049 116.789C61.0049 119.366 59.508 121.402 57.5935 121.402C55.679 121.402 54.1126 119.418 54.1126 116.866C54.1126 110.208 54.0604 106.883 54.0169 100.233C42.1468 100.875 30.2913 101.702 18.4503 102.716ZM60.796 83.2742C60.796 85.8515 59.2992 88.008 57.3847 88.1712C55.4702 88.3344 53.9037 86.4529 53.9037 83.9271C53.9037 76.7104 53.8341 73.1021 53.7906 65.8854C49.1696 66.5727 46.8287 66.9507 42.2513 67.7497C40.6674 68.0247 39.4056 66.5298 39.3969 64.3132C39.3882 62.0967 40.6239 60.0691 42.2078 59.7513C46.8113 58.832 49.1174 58.4024 53.7471 57.612L53.6601 43.1529C53.6601 40.5755 55.1482 38.2731 57.0627 37.8693C58.9772 37.4655 60.5436 39.1838 60.5436 41.7783C60.6307 55.5931 60.7148 69.425 60.796 83.2742Z" fill="#DF1900"/>
<path d="M101.393 84.4757C101.393 89.4758 101.393 91.9759 101.393 96.9846C101.393 99.751 99.8789 101.925 97.9122 101.959C95.9454 101.993 94.4312 99.8885 94.4312 97.1392V84.7163C85.5896 85.0599 81.1775 85.3005 72.3446 85.8933C70.7608 85.9964 69.4902 84.1321 69.4728 81.675C69.4554 79.2179 70.7086 77.156 72.3011 77.0185C88.9661 75.7384 105.562 75.0253 122.183 74.7762C123.776 74.7762 125.037 76.8381 125.037 79.4326C125.037 82.0272 123.776 84.0891 122.183 84.0977C113.864 84.1235 109.704 84.2008 101.393 84.4757ZM74.233 60.7037C80.1767 55.4544 83.1617 52.8083 89.1315 47.559C90.5935 46.3047 92.6124 46.8631 93.4043 49.1226C94.1963 51.3821 93.6915 54.3891 92.1599 55.7207C86.2162 60.927 83.2487 63.5474 77.3659 68.7365C75.9126 70.0596 73.8849 69.4324 73.0147 67.2674C72.1445 65.1024 72.6666 62.0611 74.233 60.7037ZM118.615 111.014C120.199 111.014 121.461 113.076 121.461 115.662C121.461 118.248 120.208 120.318 118.624 120.327C106.765 120.327 94.9011 120.327 83.0311 120.327C78.0099 120.327 75.0772 115.98 75.0336 108.454C75.0336 104.261 75.0336 102.157 74.9814 97.964C74.9814 95.2835 76.4782 93.1271 78.4015 93.0412C80.3247 92.9553 81.8824 94.9828 81.8824 97.6891C81.8824 101.538 81.8824 103.462 81.9346 107.303C81.9346 109.88 82.8745 111.298 84.5976 111.272C95.8874 111.129 107.206 111.043 118.554 111.014H118.615ZM117.24 66.6574C110.783 61.7003 104.256 56.8462 97.6337 52.1725C95.2318 50.4972 93.6828 47.1552 93.6654 42.2754C93.6654 40.2822 93.6654 39.277 93.6654 37.2839C93.6654 34.5346 95.1796 32.4556 97.1464 32.2923C99.1131 32.1291 100.627 33.959 100.627 36.7254C100.627 38.4007 100.627 39.2427 100.627 40.9266C100.627 42.8682 101.167 43.8562 101.967 44.4232C109.295 49.578 112.959 52.3358 120.242 57.9287C121.774 59.1486 122.287 62.3704 121.513 64.6385C120.738 66.9066 118.615 67.7657 117.179 66.6574H117.24Z" fill="#DF1900"/>
<path d="M147.746 36.9926C158.189 38.3672 163.349 49.3554 163.271 58.7543L163.114 94.7002C163.184 103.824 157.293 115.044 147.537 114.993C137.599 114.941 131.943 103.248 132.064 94.0472C132.064 81.7789 132.064 69.5048 132.064 57.225C132.043 54.0008 132.612 50.7992 133.744 47.7746C134.684 45.3261 136.685 44.467 138.287 45.9361C139.888 47.4052 140.48 50.6527 139.54 53.1012C139.092 54.6374 138.863 56.2278 138.861 57.8264C138.861 69.7969 138.841 81.7674 138.8 93.7379C138.8 100.551 142.559 105.766 147.502 105.766C152.445 105.766 156.266 100.8 156.292 94.0816L156.422 58.6598C156.422 51.9414 152.663 46.5289 147.659 46.2368L144.396 46.065C141.663 45.9275 139.331 44.2866 137.73 41.0391C136.537 38.6249 136.668 35.3173 138.208 33.5217C139.749 31.7261 141.959 32.3533 143.021 34.5698C143.682 35.9444 144.483 36.8036 145.753 36.8809L147.746 36.9926ZM180.093 115.268C180.093 117.922 178.552 119.976 176.612 119.976C174.671 119.976 173.183 117.879 173.2 115.19L173.592 39.0459C173.592 36.3568 175.141 34.4925 177.073 34.8018C179.005 35.1111 180.554 37.4393 180.493 40.0854L180.093 115.268Z" fill="#DF1900"/>
<path d="M198.232 113.275C193.211 113.163 190.322 108.885 190.4 101.582L190.739 45.1545C190.739 42.5771 192.219 40.8588 194.133 41.2197C196.048 41.5805 197.492 43.9087 197.475 46.4603C197.371 64.6338 197.263 82.8072 197.153 100.981C197.153 103.438 198.023 104.795 199.764 104.881C205.551 105.147 208.466 105.293 214.227 105.62C215.811 105.706 217.064 107.553 217.047 109.761C217.029 111.969 215.776 113.713 214.192 113.67C207.796 113.489 204.611 113.412 198.232 113.275ZM226.906 115.233C226.906 117.527 225.444 119.306 223.591 119.289C221.737 119.271 220.293 117.424 220.301 115.062L220.432 80.1038C216.855 79.5282 215.071 79.2446 211.486 78.7292C209.902 78.5058 208.658 76.504 208.675 74.2273C208.692 71.9507 209.945 70.3269 211.529 70.6018C215.106 71.229 216.899 71.5555 220.467 72.2342C220.51 63.1102 220.528 58.5483 220.571 49.4243C220.571 47.0617 222.024 45.6614 223.852 46.2198C225.679 46.7782 227.107 49.0377 227.098 51.3746C227.046 72.6523 226.982 93.9386 226.906 115.233ZM240.247 116.402C240.247 118.558 238.724 120.234 236.879 120.216C235.034 120.199 233.511 118.498 233.511 116.239C233.558 95.15 233.599 74.0584 233.633 52.9639C233.633 50.7302 235.13 49.5274 236.949 50.1546C237.927 50.5973 238.756 51.3061 239.34 52.1978C239.925 53.0895 240.239 54.1272 240.247 55.1891V116.402Z" fill="#DF1900"/>
</svg>
