<svg width="62" height="34" viewBox="0 0 62 34" fill="none" xmlns="http://www.w3.org/2000/svg">
<path d="M1 10.4431V30.1871C1 31.0317 1.33689 31.8417 1.93656 32.4389C2.53623 33.0361 3.34956 33.3716 4.19762 33.3716H58.1629C59.0109 33.3716 59.8242 33.0361 60.4239 32.4389C61.0236 31.8417 61.3605 31.0317 61.3605 30.1871V10.4431C61.3605 10.4431 61.3605 1 31.1792 1C0.997868 1 1 10.4431 1 10.4431Z" fill="#FFE8AE" stroke="#DF1900" stroke-width="0.645394" stroke-miterlimit="10"/>
<path d="M9.11719 6.59863L9.46467 7.06994L10.053 7.05296L9.70982 7.52639L9.90807 8.07837L9.34742 7.90004L8.8827 8.25882L8.88057 7.67287L8.39453 7.34381L8.95305 7.15911L9.11719 6.59863Z" fill="#DF1900"/>
<path d="M24.2864 4.03418L24.5913 4.53309L25.1775 4.56705L24.7938 5.01076L24.943 5.57548L24.4016 5.35044L23.907 5.66677L23.956 5.08294L23.502 4.71354L24.0733 4.57979L24.2864 4.03418Z" fill="#DF1900"/>
<path d="M53.3577 6.59863L53.0102 7.06994L52.4219 7.05296L52.7651 7.52639L52.5668 8.07837L53.1275 7.90004L53.5922 8.25882L53.5943 7.67287L54.0804 7.34381L53.5219 7.15911L53.3577 6.59863Z" fill="#DF1900"/>
<path d="M38.8501 4.03418L38.5452 4.53309L37.959 4.56705L38.3427 5.01076L38.1935 5.57548L38.7349 5.35044L39.2295 5.66677L39.1805 5.08294L39.6345 4.71354L39.0632 4.57979L38.8501 4.03418Z" fill="#DF1900"/>
<path d="M5.35089 19.1053C5.35089 19.6573 5.56407 19.8908 5.99042 19.8101C8.2053 19.3855 9.31808 19.2051 11.5458 18.8781C11.6399 18.8635 11.7363 18.8756 11.8238 18.9132C11.9113 18.9508 11.9864 19.0122 12.0403 19.0904C12.1881 19.292 12.2632 19.5374 12.2535 19.7868C12.2633 20.05 12.1943 20.3101 12.0552 20.5341C12.0059 20.6255 11.9359 20.7043 11.8508 20.7644C11.7658 20.8244 11.6679 20.864 11.5649 20.8801C9.57815 21.1158 7.59136 21.3939 5.61736 21.7124C5.00555 21.8079 4.5323 21.6699 4.19548 21.3069C3.85867 20.9438 3.68813 20.3876 3.68813 19.6254V15.3391C3.6064 15.3697 3.51766 15.3768 3.43207 15.3596C3.34649 15.3423 3.26752 15.3013 3.20422 15.2414C3.13321 15.1688 3.0783 15.0822 3.04305 14.9871C3.00779 14.892 2.99298 14.7906 2.99957 14.6895C2.99716 14.4452 3.06604 14.2055 3.19783 13.9995C3.30269 13.8055 3.47347 13.6549 3.6796 13.5749C5.97123 12.8191 8.24367 12.1418 10.5737 11.5049C10.6623 11.4796 10.7566 11.4811 10.8444 11.5095C10.9321 11.5379 11.0093 11.5918 11.0661 11.6642C11.2144 11.8541 11.29 12.0904 11.2793 12.3308C11.2864 12.5974 11.2185 12.8607 11.0832 13.0908C11.0327 13.1864 10.9632 13.2707 10.8789 13.3386C10.7946 13.4065 10.6973 13.4565 10.5929 13.4857C8.48456 13.9655 7.43574 14.2373 5.34876 14.8423L5.35089 19.1053ZM5.029 25.8395C4.93549 25.8495 4.84096 25.8353 4.75464 25.7981C4.66833 25.7608 4.59319 25.702 4.53656 25.6272C4.39446 25.446 4.32258 25.2199 4.33405 24.9903C4.32867 24.75 4.39872 24.5139 4.53443 24.3152C4.58763 24.2289 4.65903 24.1551 4.74369 24.099C4.82836 24.0429 4.92425 24.0058 5.02473 23.9903C8.20388 23.6252 11.3859 23.311 14.5707 23.0477C14.6902 23.0394 14.8097 23.0636 14.9164 23.1179C15.023 23.1721 15.1128 23.2543 15.1761 23.3556C15.3484 23.6103 15.4357 23.9126 15.4255 24.2196C15.4255 26.2535 15.4426 27.2704 15.4554 29.3148C15.4656 29.6031 15.3818 29.8868 15.2166 30.1237C15.153 30.2244 15.065 30.3077 14.9607 30.3659C14.8565 30.4242 14.7393 30.4555 14.6197 30.457C14.4998 30.4557 14.382 30.4249 14.2768 30.3675C14.1716 30.3102 14.0822 30.2279 14.0165 30.1279C13.8502 29.8976 13.7635 29.6197 13.7692 29.3361L13.7457 25.2238C10.8352 25.3852 7.9296 25.5904 5.029 25.8395ZM15.4021 21.0351C15.4101 21.329 15.3267 21.6182 15.1633 21.8631C15.1005 21.9686 15.0138 22.058 14.9102 22.1244C14.8066 22.1907 14.6889 22.2321 14.5664 22.2452C14.4508 22.2555 14.3344 22.2354 14.2289 22.187C14.1235 22.1386 14.0326 22.0635 13.9653 21.9692C13.7949 21.7482 13.7075 21.4749 13.718 21.1965C13.718 19.4131 13.701 18.5194 13.6903 16.7382C12.5583 16.908 11.9849 16.9993 10.8636 17.1988C10.7713 17.2161 10.6759 17.2071 10.5885 17.1729C10.501 17.1388 10.425 17.0808 10.369 17.0057C10.2219 16.8143 10.1465 16.5778 10.1559 16.3369C10.1483 16.0747 10.2172 15.8159 10.3541 15.5917C10.4043 15.4979 10.4736 15.4156 10.5577 15.3502C10.6418 15.2847 10.7387 15.2375 10.8423 15.2117C11.9785 14.9824 12.5455 14.8763 13.6839 14.6895L13.6626 11.1164C13.6582 10.8163 13.7411 10.5214 13.9013 10.2672C13.9628 10.1543 14.047 10.0551 14.1486 9.97584C14.2501 9.8966 14.367 9.83897 14.4918 9.80654C14.6019 9.77981 14.7174 9.78566 14.8242 9.82337C14.931 9.86108 15.0244 9.92902 15.093 10.0188C15.2659 10.2337 15.3545 10.5038 15.3424 10.7789C15.3623 14.1941 15.3822 17.6128 15.4021 21.0351Z" fill="#DF1900"/>
<path d="M25.3461 21.3252C25.3461 22.5608 25.3461 23.1786 25.3461 24.4163C25.3559 24.722 25.2719 25.0235 25.1052 25.2804C25.0443 25.387 24.9571 25.4764 24.852 25.5403C24.7468 25.6042 24.6271 25.6404 24.504 25.6455C24.3849 25.6428 24.2685 25.6101 24.1656 25.5503C24.0626 25.4905 23.9767 25.4057 23.9157 25.3037C23.7478 25.0526 23.6614 24.7561 23.6684 24.4545V21.3847C21.5025 21.4696 20.4217 21.5269 18.2602 21.6755C18.1591 21.6796 18.059 21.6552 17.9711 21.6053C17.8833 21.5554 17.8113 21.4819 17.7635 21.3931C17.6173 21.1669 17.543 20.902 17.5503 20.6331C17.5382 20.3575 17.6016 20.0838 17.7336 19.8412C17.7802 19.7456 17.8496 19.6628 17.9359 19.6003C18.0221 19.5377 18.1225 19.4972 18.2282 19.4824C22.2977 19.1725 26.3523 18.9899 30.4346 18.9347C30.5396 18.9405 30.6411 18.9742 30.7285 19.0325C30.8159 19.0908 30.8859 19.1714 30.9313 19.2659C31.0642 19.5184 31.1337 19.7992 31.1337 20.0843C31.1337 20.3694 31.0642 20.6503 30.9313 20.9027C30.8861 20.9978 30.8163 21.079 30.7289 21.138C30.6415 21.197 30.5399 21.2316 30.4346 21.2382C28.3924 21.2445 27.3819 21.27 25.3461 21.3252ZM18.3731 17.0792C18.2734 16.7949 18.2521 16.4892 18.3113 16.1939C18.3472 15.9153 18.4747 15.6563 18.6737 15.4572C20.1297 14.1601 20.8609 13.5062 22.3233 12.209C22.4007 12.1376 22.4957 12.0879 22.5988 12.0652C22.7018 12.0424 22.809 12.0474 22.9095 12.0795C23.0216 12.1227 23.1218 12.1918 23.2019 12.2811C23.282 12.3705 23.3396 12.4775 23.37 12.5933C23.4696 12.8835 23.4902 13.1948 23.4296 13.4956C23.3953 13.7733 23.2667 14.031 23.0651 14.2259C21.6177 15.5124 20.8907 16.1599 19.439 17.4486C19.3636 17.5253 19.2679 17.5791 19.163 17.6039C19.0581 17.6287 18.9484 17.6234 18.8464 17.5887C18.7329 17.5467 18.6309 17.4787 18.5487 17.3902C18.4665 17.3017 18.4064 17.1951 18.3731 17.0792ZM29.5414 27.8895C29.6463 27.8945 29.7479 27.928 29.835 27.9864C29.9222 28.0448 29.9917 28.1258 30.0359 28.2207C30.1779 28.4694 30.248 28.7522 30.2385 29.0381C30.2474 29.3245 30.1773 29.608 30.0359 29.8576C29.9917 29.952 29.9225 30.0327 29.8358 30.0911C29.749 30.1494 29.648 30.1832 29.5435 30.1888H20.8246C20.5382 30.1967 20.2546 30.1294 20.0024 29.9938C19.7503 29.8582 19.5383 29.6589 19.3878 29.416C19.0439 28.905 18.8698 28.1846 18.8656 27.2548L18.8613 24.6668C18.8499 24.3659 18.9334 24.0689 19.1001 23.8176C19.1617 23.7114 19.2485 23.6218 19.3529 23.5566C19.4574 23.4915 19.5762 23.4528 19.6991 23.444C19.8185 23.44 19.9369 23.4673 20.0424 23.5232C20.1479 23.579 20.2368 23.6616 20.3002 23.7624C20.4707 24.006 20.5574 24.2979 20.5475 24.5946C20.5475 25.5436 20.5475 26.0192 20.5603 26.9703C20.5603 27.6312 20.7778 27.9582 21.2126 27.9511C23.991 27.9171 26.7701 27.8966 29.5499 27.8895H29.5414ZM30.2662 16.4253C30.2353 16.548 30.1777 16.6625 30.0974 16.7604C30.0171 16.8584 29.916 16.9375 29.8014 16.9922C29.7051 17.0364 29.5984 17.0532 29.4931 17.0409C29.3878 17.0285 29.2879 16.9874 29.2046 16.9221C27.6356 15.6992 26.0389 14.4997 24.4166 13.3448C24.1024 13.1022 23.8589 12.7805 23.711 12.4128C23.5218 11.931 23.4312 11.4163 23.4446 10.8991V9.66567C23.4339 9.3642 23.519 9.06706 23.6876 8.81646C23.752 8.71112 23.8399 8.62201 23.9445 8.55609C24.0492 8.49017 24.1677 8.44922 24.2909 8.43645C24.4074 8.42564 24.5248 8.44566 24.6311 8.4945C24.7374 8.54333 24.8289 8.61924 24.8963 8.71456C25.0707 8.95058 25.158 9.23925 25.1436 9.53192C25.1436 9.9459 25.1436 10.154 25.1436 10.5701C25.1347 10.7577 25.1659 10.9452 25.2352 11.1199C25.2879 11.2419 25.369 11.3496 25.4719 11.4341C27.2668 12.7079 28.1643 13.3873 29.9485 14.7694C30.1538 14.9601 30.2839 15.2176 30.3152 15.4954C30.3807 15.8053 30.3667 16.1265 30.2747 16.4296L30.2662 16.4253Z" fill="#DF1900"/>
<path d="M36.7069 9.59418C37.2354 9.63005 37.7454 9.80276 38.1863 10.0952C38.6619 10.4062 39.0735 10.8047 39.3993 11.2692C39.759 11.7816 40.0346 12.3478 40.2157 12.9464C40.4171 13.6026 40.5163 14.2856 40.5099 14.9718L40.4715 23.8544C40.4739 24.5295 40.3696 25.2008 40.1624 25.8437C39.9807 26.4155 39.7016 26.9519 39.3374 27.4296C39.0093 27.8614 38.5967 28.2225 38.1245 28.4911C37.6771 28.7447 37.1705 28.8765 36.6557 28.8732C36.1397 28.8718 35.6334 28.7333 35.1891 28.472C34.7167 28.1943 34.3062 27.8238 33.9825 27.3828C33.6192 26.8864 33.3432 26.3323 33.166 25.7439C32.9606 25.0812 32.8599 24.3908 32.8676 23.6973V14.5981C32.86 13.8011 32.9994 13.0096 33.279 12.2628C33.3588 12.0046 33.5382 11.7885 33.7778 11.662C33.8822 11.6163 33.9987 11.6059 34.1096 11.6324C34.2204 11.6588 34.3195 11.7207 34.3918 11.8085C34.605 12.0256 34.7438 12.3042 34.7883 12.6046C34.8428 12.929 34.8112 13.262 34.6966 13.5706C34.5766 13.9479 34.5204 14.3425 34.5304 14.7382C34.5304 17.6949 34.5254 20.6529 34.5154 23.6124C34.5113 24.0095 34.5659 24.4051 34.6774 24.7864C34.7727 25.1215 34.9256 25.4376 35.1294 25.7205C35.3113 25.9757 35.5425 26.1922 35.8094 26.3574C36.0668 26.5121 36.3615 26.5943 36.6621 26.5952C36.9604 26.603 37.2552 26.5296 37.5148 26.3829C37.7817 26.2286 38.0145 26.0221 38.1991 25.7757C38.4037 25.5009 38.5587 25.1927 38.6574 24.865C38.7698 24.491 38.8258 24.1025 38.8237 23.7122L38.8386 14.9484C38.843 14.5535 38.7891 14.1601 38.6787 13.7808C38.582 13.44 38.4285 13.1178 38.2247 12.8275C38.0417 12.5643 37.8102 12.3381 37.5425 12.1609C37.2879 11.9945 36.9938 11.8978 36.6898 11.8807L35.8883 11.8382C35.1912 11.8021 34.6476 11.3924 34.2554 10.5962C34.1016 10.2947 34.0345 9.95677 34.0614 9.61966C34.0733 9.30194 34.1852 8.996 34.3811 8.74498C34.4469 8.64064 34.5444 8.5599 34.6594 8.51447C34.7744 8.46904 34.9009 8.46129 35.0207 8.49234C35.1451 8.53032 35.2592 8.59617 35.3542 8.68486C35.4492 8.77355 35.5225 8.88271 35.5685 9.00399C35.6403 9.15349 35.7369 9.28986 35.8542 9.40736C35.9578 9.50627 36.0944 9.56371 36.2379 9.56871L36.7069 9.59418ZM44.6306 28.9369C44.6383 29.2317 44.5509 29.5211 44.3812 29.7627C44.3173 29.8647 44.2288 29.9492 44.1239 30.0085C44.0189 30.0679 43.9007 30.1001 43.78 30.1024C43.6593 30.0997 43.5412 30.0666 43.4368 30.006C43.3324 29.9455 43.2451 29.8596 43.1831 29.7564C43.0166 29.5098 42.933 29.2169 42.9444 28.9199L43.0403 10.1016C43.0275 9.81502 43.1149 9.53292 43.2876 9.30333C43.3545 9.20906 43.4469 9.13566 43.5541 9.09169C43.6613 9.04771 43.7788 9.03497 43.893 9.05494C44.0189 9.08048 44.1377 9.13302 44.2412 9.20891C44.3446 9.2848 44.4302 9.38222 44.492 9.4944C44.6549 9.75369 44.7379 10.0548 44.7308 10.3606L44.6306 28.9369Z" fill="#DF1900"/>
<path d="M49.0717 28.4465C48.787 28.4508 48.506 28.3819 48.2559 28.2465C48.0057 28.1112 47.7947 27.9139 47.6434 27.6737C47.3045 27.1684 47.1403 26.4614 47.1446 25.5507L47.2278 11.6068C47.2157 11.3328 47.3001 11.0632 47.4665 10.8446C47.5335 10.7553 47.6254 10.6875 47.7308 10.6498C47.8362 10.6121 47.9503 10.606 48.0591 10.6323C48.1841 10.6638 48.301 10.7214 48.4021 10.8011C48.5031 10.8809 48.586 10.9811 48.6454 11.0951C48.8013 11.3507 48.8805 11.6454 48.8735 11.9443L48.7946 25.4169C48.7946 26.039 49.0078 26.3595 49.4341 26.3786C50.8517 26.4466 51.5659 26.4827 52.9771 26.5634C53.0781 26.5727 53.1755 26.6059 53.2611 26.6602C53.3468 26.7144 53.4182 26.7882 53.4695 26.8754C53.6076 27.0865 53.6768 27.3349 53.6678 27.5866C53.6742 27.835 53.5994 28.0786 53.4546 28.2809C53.402 28.3641 53.329 28.4327 53.2425 28.4802C53.156 28.5278 53.0588 28.5527 52.96 28.5526C51.4166 28.5017 50.6322 28.4889 49.0717 28.4465ZM56.0958 28.9326C56.1033 29.19 56.0196 29.4418 55.8592 29.6438C55.7927 29.7337 55.706 29.8068 55.6061 29.8573C55.5061 29.9078 55.3957 29.9343 55.2836 29.9347C55.1703 29.9329 55.059 29.9039 54.9592 29.8504C54.8594 29.7968 54.774 29.7201 54.7102 29.6268C54.5515 29.4144 54.4697 29.1548 54.4778 28.8902L54.5162 20.2517C53.64 20.1094 53.203 20.0394 52.3248 19.912C52.2207 19.8927 52.1224 19.8499 52.0374 19.787C51.9524 19.7241 51.883 19.6427 51.8345 19.5489C51.697 19.3227 51.6282 19.0617 51.6362 18.7974C51.6284 18.5515 51.7035 18.3101 51.8494 18.1117C51.902 18.0321 51.9769 17.9696 52.0648 17.9318C52.1527 17.8941 52.2497 17.8828 52.3439 17.8994C53.2201 18.0522 53.6592 18.1329 54.5333 18.3027C54.5439 16.0481 54.5482 14.9208 54.5588 12.6662C54.5508 12.5454 54.5675 12.4242 54.6078 12.31C54.6481 12.1958 54.7112 12.0909 54.7933 12.0017C54.865 11.9269 54.9573 11.875 55.0586 11.8523C55.1599 11.8296 55.2656 11.8373 55.3625 11.8743C55.6003 11.9617 55.798 12.1322 55.9189 12.3541C56.0687 12.5896 56.1479 12.8629 56.147 13.1417C56.1299 18.4053 56.1122 23.669 56.0937 28.9326H56.0958ZM59.3638 29.2214C59.3699 29.4667 59.2831 29.7054 59.1208 29.8901C59.0502 29.9769 58.9608 30.0466 58.8593 30.0941C58.7578 30.1416 58.6468 30.1657 58.5347 30.1644C58.4225 30.1632 58.3121 30.1368 58.2117 30.087C58.1112 30.0373 58.0234 29.9656 57.9547 29.8774C57.7931 29.6808 57.7076 29.4329 57.7138 29.1789C57.7252 23.9676 57.7351 18.7556 57.7437 13.543C57.7355 13.4298 57.7527 13.3163 57.794 13.2105C57.8353 13.1048 57.8997 13.0095 57.9824 12.9315C58.0608 12.8659 58.1561 12.8235 58.2575 12.8092C58.3589 12.7949 58.4623 12.8094 58.5559 12.8509C58.7947 12.945 58.9956 13.1152 59.1272 13.3349C59.279 13.559 59.3613 13.8225 59.3638 14.0928V29.2214Z" fill="#DF1900"/>
</svg>
