<svg width="19" height="24" viewBox="0 0 19 24" fill="none" xmlns="http://www.w3.org/2000/svg">
<path d="M14.1878 6.53174C14.1878 9.03455 12.1821 11.0635 9.7078 11.0635C7.23354 11.0635 5.22776 9.03455 5.22776 6.53174C5.22776 4.02893 7.23354 2 9.7078 2C12.1821 2 14.1878 4.02893 14.1878 6.53174Z" stroke="#FCEFE8" stroke-width="2.24002" stroke-linecap="round"/>
<path d="M2.24616 19.3572C2.98658 16.1921 6.0921 14.4623 9.30749 14.4623H10.1081C13.3235 14.4623 16.429 16.1921 17.1694 19.3572C17.3127 19.9696 17.4266 20.6105 17.4906 21.2617C17.5519 21.8844 17.0464 22.3928 16.4279 22.3928H2.98774C2.36917 22.3928 1.86371 21.8844 1.92496 21.2617C1.98903 20.6105 2.10289 19.9696 2.24616 19.3572Z" stroke="#FCEFE8" stroke-width="2.24002" stroke-linecap="round"/>
</svg>
