<svg width="286" height="155" viewBox="0 0 286 155" fill="none" xmlns="http://www.w3.org/2000/svg">
<g filter="url(#filter0-d-370-504)">
<path d="M12 50.214V130.113C12 131.812 12.3597 133.495 13.0585 135.064C13.7572 136.633 14.7813 138.058 16.0716 139.256C17.3619 140.454 18.893 141.401 20.5768 142.044C22.2605 142.686 24.0637 143.011 25.8824 143H260.118C261.936 143.011 263.739 142.686 265.423 142.044C267.107 141.401 268.638 140.454 269.928 139.256C271.219 138.058 272.243 136.633 272.942 135.064C273.64 133.495 274 131.812 274 130.113V50.214C274 50.214 274.018 12 143 12C11.9816 12 12 50.214 12 50.214Z" fill="#FFE8AE" stroke="#DF1900" stroke-width="4" stroke-miterlimit="10"/>
<path d="M46.9917 40.2051L48.5638 42.2154L51.2299 42.1381L49.6762 44.1571L50.568 46.5025L48.0306 45.7379L45.9252 47.2671L45.916 44.7756L43.7188 43.3753L46.247 42.5935L46.9917 40.2051Z" fill="#DF1900"/>
<path d="M112.425 27.9531L113.804 30.0838L116.461 30.2212L114.724 32.1113L115.404 34.5169L112.949 33.5546L110.706 34.9035L110.927 32.4206L108.867 30.8484L111.451 30.2728L112.425 27.9531Z" fill="#DF1900"/>
<path d="M237.819 40.2051L236.247 42.2154L233.59 42.1381L235.144 44.1571L234.243 46.5025L236.78 45.7379L238.885 47.2671L238.895 44.7756L241.092 43.3753L238.564 42.5935L237.819 40.2051Z" fill="#DF1900"/>
<path d="M175.241 29.2012L173.862 31.3318L171.205 31.4693L172.943 33.3508L172.262 35.7649L174.717 34.8027L176.96 36.1429L176.74 33.6686L178.799 32.0878L176.206 31.5208L175.241 29.2012Z" fill="#DF1900"/>
<path d="M30.7676 85.4647C30.7676 87.6469 31.7421 88.6435 33.5257 88.317C43.0963 86.6245 47.8586 85.8857 57.5119 84.5454C59.1759 84.3135 60.5182 85.9114 60.5274 88.2311C60.5366 90.5507 59.2311 92.4666 57.5578 92.6556C48.9894 93.6178 40.4209 94.7347 31.9076 96.0234C26.6397 96.8052 23.6334 93.7381 23.6334 87.5782C23.6334 80.6364 23.6334 77.1741 23.6334 70.2324C21.9877 70.7049 20.6914 69.5794 20.6914 67.5777C20.6914 65.5759 21.9877 63.6343 23.6242 63.093C33.443 60.0259 43.2618 57.2681 53.292 54.7079C54.9561 54.3127 56.2891 55.7561 56.2983 58.0499C56.3075 60.3438 55.002 62.3628 53.3747 62.6892C44.2823 64.6309 39.759 65.7305 30.7584 68.1877L30.7676 85.4647ZM29.3794 112.716C27.7153 112.854 26.3915 111.324 26.3823 109.28C26.3731 107.235 27.6969 105.431 29.361 105.233C43.0718 103.756 56.7948 102.484 70.5301 101.419C72.5619 101.273 74.2075 103.378 74.2075 106.17C74.2075 114.4 74.2811 118.515 74.3362 126.789C74.3362 129.366 72.7549 131.402 70.7323 131.402C68.7097 131.402 67.0549 129.418 67.0549 126.866C67.0549 120.208 66.9997 116.883 66.9537 110.233C54.4136 110.875 41.8888 111.702 29.3794 112.716ZM74.1156 93.2742C74.1156 95.8515 72.5343 98.008 70.5117 98.1712C68.4891 98.3344 66.8342 96.4529 66.8342 93.9271C66.8342 86.7104 66.7607 83.1021 66.7147 75.8854C61.8329 76.5727 59.3598 76.9507 54.524 77.7497C52.8507 78.0247 51.5176 76.5298 51.5084 74.3132C51.4992 72.0967 52.8047 70.0691 54.478 69.7513C59.3414 68.832 61.7777 68.4024 66.6687 67.612L66.5768 53.1529C66.5768 50.5755 68.1489 48.2731 70.1715 47.8693C72.1941 47.4655 73.849 49.1838 73.849 51.7783C73.9409 65.5931 74.0298 79.425 74.1156 93.2742Z" fill="#DF1900"/>
<path d="M117.004 94.4747C117.004 99.4749 117.004 101.975 117.004 106.984C117.004 109.75 115.404 111.924 113.326 111.958C111.248 111.992 109.649 109.887 109.649 107.138V94.7153C100.308 95.0589 95.6469 95.2995 86.3153 95.8923C84.6421 95.9954 83.2998 94.1311 83.2814 91.674C83.2631 89.2169 84.5869 87.155 86.2694 87.0175C103.875 85.7374 121.407 85.0243 138.967 84.7752C140.65 84.7752 141.983 86.8371 141.983 89.4317C141.983 92.0262 140.65 94.0881 138.967 94.0967C130.178 94.1225 125.784 94.1998 117.004 94.4747ZM88.3104 70.7027C94.5896 65.4534 97.743 62.8073 104.05 57.558C105.594 56.3037 107.727 56.8621 108.564 59.1217C109.401 61.3812 108.867 64.3881 107.249 65.7198C100.97 70.9261 97.835 73.5464 91.6201 78.7355C90.0847 80.0586 87.9426 79.4314 87.0232 77.2664C86.1039 75.1014 86.6555 72.0601 88.3104 70.7027ZM135.198 121.013C136.871 121.013 138.204 123.075 138.204 125.661C138.204 128.247 136.88 130.318 135.207 130.326C122.679 130.326 110.145 130.326 97.6051 130.326C92.3004 130.326 89.2021 125.979 89.1562 118.453C89.1562 114.26 89.1562 112.156 89.101 107.963C89.101 105.283 90.6823 103.126 92.7141 103.04C94.7459 102.954 96.3916 104.982 96.3916 107.688C96.3916 111.537 96.3916 113.461 96.4467 117.302C96.4467 119.879 97.4396 121.297 99.26 121.271C111.187 121.128 123.145 121.042 135.133 121.013H135.198ZM133.745 76.6564C126.924 71.6993 120.028 66.8452 113.032 62.1716C110.495 60.4963 108.858 57.1543 108.84 52.2744C108.84 50.2812 108.84 49.2761 108.84 47.2829C108.84 44.5337 110.439 42.4546 112.517 42.2914C114.595 42.1281 116.195 43.9581 116.195 46.7244C116.195 48.3997 116.195 49.2417 116.195 50.9256C116.195 52.8672 116.765 53.8552 117.61 54.4222C125.351 59.577 129.222 62.3348 136.917 67.9277C138.535 69.1477 139.078 72.3694 138.259 74.6375C137.441 76.9056 135.198 77.7647 133.681 76.6564H133.745Z" fill="#DF1900"/>
<path d="M165.973 46.9926C177.006 48.3672 182.457 59.3554 182.375 68.7543L182.209 104.7C182.283 113.824 176.059 125.044 165.753 124.993C155.253 124.941 149.278 113.248 149.406 104.047C149.406 91.7789 149.406 79.5048 149.406 67.225C149.384 64.0008 149.985 60.7992 151.181 57.7746C152.174 55.3261 154.288 54.467 155.98 55.9361C157.671 57.4052 158.297 60.6527 157.304 63.1012C156.831 64.6374 156.589 66.2278 156.587 67.8264C156.587 79.7969 156.565 91.7674 156.522 103.738C156.522 110.551 160.494 115.766 165.716 115.766C170.938 115.766 174.974 110.8 175.001 104.082L175.139 68.6598C175.139 61.9414 171.168 56.5289 165.881 56.2368L162.434 56.065C159.547 55.9275 157.083 54.2866 155.391 51.0391C154.132 48.6249 154.27 45.3173 155.897 43.5217C157.524 41.7261 159.859 42.3533 160.981 44.5698C161.68 45.9444 162.526 46.8036 163.868 46.8809L165.973 46.9926ZM200.146 125.268C200.146 127.922 198.519 129.976 196.469 129.976C194.418 129.976 192.846 127.879 192.865 125.19L193.278 49.0459C193.278 46.3568 194.915 44.4925 196.956 44.8018C198.997 45.1111 200.633 47.4393 200.569 50.0854L200.146 125.268Z" fill="#DF1900"/>
<path d="M219.309 123.275C214.004 123.163 210.952 118.885 211.035 111.582L211.393 55.1545C211.393 52.5771 212.956 50.8588 214.979 51.2197C217.002 51.5805 218.528 53.9087 218.509 56.4603C218.399 74.6338 218.286 92.8072 218.169 110.981C218.169 113.438 219.088 114.795 220.927 114.881C227.041 115.147 230.121 115.293 236.207 115.62C237.88 115.706 239.204 117.553 239.186 119.761C239.167 121.969 237.843 123.713 236.17 123.67C229.413 123.489 226.048 123.412 219.309 123.275ZM249.602 125.233C249.602 127.527 248.058 129.306 246.099 129.289C244.141 129.271 242.615 127.424 242.624 125.062L242.762 90.1038C238.983 89.5282 237.099 89.2446 233.311 88.7292C231.638 88.5058 230.323 86.504 230.341 84.2273C230.36 81.9507 231.684 80.3269 233.357 80.6018C237.136 81.229 239.029 81.5555 242.799 82.2342C242.845 73.1102 242.863 68.5483 242.909 59.4243C242.909 57.0617 244.444 55.6614 246.375 56.2198C248.306 56.7782 249.814 59.0377 249.804 61.3746C249.749 82.6523 249.682 103.939 249.602 125.233ZM263.696 126.402C263.696 128.558 262.087 130.234 260.138 130.216C258.189 130.199 256.58 128.498 256.58 126.239C256.629 105.15 256.672 84.0584 256.709 62.9639C256.709 60.7302 258.29 59.5274 260.212 60.1546C261.244 60.5973 262.121 61.3061 262.738 62.1978C263.355 63.0895 263.687 64.1272 263.696 65.1891V126.402Z" fill="#DF1900"/>
</g>
<defs>
<filter id="filter0-d-370-504" x="0" y="0" width="286" height="155" filterUnits="userSpaceOnUse" color-interpolation-filters="sRGB">
<feFlood flood-opacity="0" result="BackgroundImageFix"/>
<feColorMatrix in="SourceAlpha" type="matrix" values="0 0 0 0 0 0 0 0 0 0 0 0 0 0 0 0 0 0 127 0" result="hardAlpha"/>
<feOffset/>
<feGaussianBlur stdDeviation="5"/>
<feComposite in2="hardAlpha" operator="out"/>
<feColorMatrix type="matrix" values="0 0 0 0 0 0 0 0 0 0 0 0 0 0 0 0 0 0 0.5 0"/>
<feBlend mode="normal" in2="BackgroundImageFix" result="effect1-dropShadow-370-504"/>
<feBlend mode="normal" in="SourceGraphic" in2="effect1-dropShadow-370-504" result="shape"/>
</filter>
</defs>
</svg>
