<svg width="73" height="73" viewBox="0 0 73 73" fill="none" xmlns="http://www.w3.org/2000/svg">
<rect width="73" height="73" rx="36.5" fill="#D71313"/>
<path d="M30.026 35.039C30.4994 35.039 30.8963 34.8789 31.2166 34.5586C31.5369 34.2383 31.697 33.8414 31.697 33.368C31.697 32.8945 31.5369 32.4977 31.2166 32.1774C30.8963 31.8571 30.4994 31.697 30.026 31.697C29.5525 31.697 29.1557 31.8571 28.8354 32.1774C28.5151 32.4977 28.355 32.8945 28.355 33.368C28.355 33.8414 28.5151 34.2383 28.8354 34.5586C29.1557 34.8789 29.5525 35.039 30.026 35.039ZM36.71 35.039C37.1834 35.039 37.5803 34.8789 37.9006 34.5586C38.2209 34.2383 38.381 33.8414 38.381 33.368C38.381 32.8945 38.2209 32.4977 37.9006 32.1774C37.5803 31.8571 37.1834 31.697 36.71 31.697C36.2365 31.697 35.8397 31.8571 35.5194 32.1774C35.1991 32.4977 35.039 32.8945 35.039 33.368C35.039 33.8414 35.1991 34.2383 35.5194 34.5586C35.8397 34.8789 36.2365 35.039 36.71 35.039ZM43.394 35.039C43.8674 35.039 44.2643 34.8789 44.5846 34.5586C44.9049 34.2383 45.065 33.8414 45.065 33.368C45.065 32.8945 44.9049 32.4977 44.5846 32.1774C44.2643 31.8571 43.8674 31.697 43.394 31.697C42.9205 31.697 42.5237 31.8571 42.2034 32.1774C41.8831 32.4977 41.723 32.8945 41.723 33.368C41.723 33.8414 41.8831 34.2383 42.2034 34.5586C42.5237 34.8789 42.9205 35.039 43.394 35.039ZM20 53.42V23.342C20 22.4229 20.3272 21.6362 20.9817 20.9817C21.6362 20.3272 22.4229 20 23.342 20H50.078C50.997 20 51.7838 20.3272 52.4383 20.9817C53.0928 21.6362 53.42 22.4229 53.42 23.342V43.394C53.42 44.313 53.0928 45.0998 52.4383 45.7543C51.7838 46.4088 50.997 46.736 50.078 46.736H26.684L20 53.42ZM25.2636 43.394H50.078V23.342H23.342V45.2739L25.2636 43.394Z" fill="white"/>
</svg>
