<svg width="130" height="74" viewBox="0 0 130 74" fill="none" xmlns="http://www.w3.org/2000/svg">
<path d="M2 22.4197V65.1137C1.99998 66.0219 2.17298 66.9211 2.50903 67.7596C2.84508 68.598 3.33755 69.3592 3.95809 69.9992C4.57862 70.6393 5.31496 71.1456 6.1247 71.4889C6.93445 71.8323 7.80161 72.0059 8.67626 71.9998H121.324C122.198 72.0059 123.066 71.8323 123.875 71.4889C124.685 71.1456 125.421 70.6393 126.042 69.9992C126.662 69.3592 127.155 68.598 127.491 67.7596C127.827 66.9211 128 66.0219 128 65.1137V22.4197C128 22.4197 128.009 2 65 2C1.99116 2 2 22.4197 2 22.4197Z" fill="#FFE8AE" stroke="#DF1900" stroke-width="4" stroke-miterlimit="10"/>
<path d="M18.8279 17.0713L19.584 18.1455L20.8662 18.1042L20.1189 19.183L20.5478 20.4363L19.3275 20.0277L18.315 20.8449L18.3106 19.5136L17.2539 18.7653L18.4698 18.3475L18.8279 17.0713Z" fill="#DF1900"/>
<path d="M50.2951 10.5249L50.9583 11.6634L52.236 11.7369L51.4004 12.7468L51.7276 14.0322L50.5471 13.5181L49.4683 14.2388L49.5744 12.9121L48.584 12.072L49.8264 11.7644L50.2951 10.5249Z" fill="#DF1900"/>
<path d="M110.602 17.0713L109.846 18.1455L108.568 18.1042L109.316 19.183L108.882 20.4363L110.103 20.0277L111.115 20.8449L111.119 19.5136L112.176 18.7653L110.96 18.3475L110.602 17.0713Z" fill="#DF1900"/>
<path d="M80.5054 11.1909L79.8422 12.3294L78.5645 12.4029L79.4001 13.4083L79.0729 14.6983L80.2534 14.1841L81.3322 14.9002L81.2261 13.5781L82.2165 12.7334L80.9697 12.4304L80.5054 11.1909Z" fill="#DF1900"/>
<path d="M11.0235 41.2558C11.0235 42.4218 11.4922 42.9544 12.35 42.7799C16.9526 41.8755 19.2429 41.4807 23.8853 40.7646C24.6856 40.6406 25.3311 41.4945 25.3355 42.734C25.3399 43.9735 24.7121 44.9973 23.9074 45.0983C19.7867 45.6124 15.666 46.2092 11.5718 46.8978C9.03836 47.3156 7.59257 45.6767 7.59257 42.3851C7.59257 38.6758 7.59257 36.8257 7.59257 33.1164C6.80115 33.3689 6.17773 32.7675 6.17773 31.6978C6.17773 30.6282 6.80115 29.5907 7.58815 29.3015C12.3102 27.6626 17.0322 26.1889 21.8559 24.8209C22.6562 24.6097 23.2973 25.381 23.3017 26.6067C23.3061 27.8324 22.6783 28.9113 21.8957 29.0857C17.523 30.1232 15.3476 30.7108 11.0191 32.0238L11.0235 41.2558ZM10.3559 55.8177C9.55566 55.8911 8.91898 55.074 8.91456 53.9814C8.91014 52.8888 9.54681 51.9247 10.3471 51.8191C16.9408 51.0295 23.5404 50.3501 30.1459 49.7808C31.1231 49.7028 31.9145 50.8275 31.9145 52.3195C31.9145 56.7175 31.9499 58.9164 31.9764 63.3373C31.9764 64.7146 31.2159 65.8026 30.2432 65.8026C29.2705 65.8026 28.4747 64.7421 28.4747 63.3786C28.4747 59.8208 28.4481 58.0442 28.426 54.4909C22.3953 54.8337 16.3719 55.276 10.3559 55.8177ZM31.8703 45.4288C31.8703 46.806 31.1098 47.9583 30.1371 48.0455C29.1644 48.1327 28.3686 47.1274 28.3686 45.7777C28.3686 41.9215 28.3332 39.9933 28.3111 36.1371C25.9633 36.5044 24.774 36.7064 22.4483 37.1333C21.6437 37.2802 21.0026 36.4814 20.9981 35.297C20.9937 34.1126 21.6216 33.0292 22.4262 32.8593C24.7651 32.3681 25.9368 32.1386 28.289 31.7162L28.2448 23.99C28.2448 22.6127 29.0008 21.3824 29.9735 21.1666C30.9462 20.9509 31.7421 21.869 31.7421 23.2554C31.7863 30.6374 31.829 38.0285 31.8703 45.4288Z" fill="#DF1900"/>
<path d="M52.4969 46.0713C52.4969 48.7431 52.4969 50.079 52.4969 52.7554C52.4969 54.2337 51.7276 55.3951 50.7284 55.4135C49.7292 55.4318 48.9599 54.3071 48.9599 52.8381V46.1998C44.4678 46.3835 42.2261 46.512 37.7384 46.8288C36.9338 46.8839 36.2882 45.8877 36.2794 44.5747C36.2705 43.2617 36.9072 42.16 37.7163 42.0865C46.1832 41.4025 54.6148 41.0215 63.0596 40.8883C63.8687 40.8883 64.5098 41.9901 64.5098 43.3765C64.5098 44.7629 63.8687 45.8647 63.0596 45.8693C58.8328 45.8831 56.7193 45.9244 52.4969 46.0713ZM38.6979 33.3687C41.7177 30.5637 43.2342 29.1498 46.2672 26.3448C47.01 25.6746 48.0358 25.973 48.4381 27.1803C48.8405 28.3877 48.584 29.9945 47.8059 30.706C44.7861 33.488 43.2784 34.8882 40.2896 37.661C39.5512 38.368 38.521 38.0329 38.0789 36.876C37.6367 35.7191 37.902 34.094 38.6979 33.3687ZM61.2468 60.2521C62.0515 60.2521 62.6926 61.3539 62.6926 62.7357C62.6926 64.1176 62.0559 65.2239 61.2512 65.2285C55.2264 65.2285 49.1986 65.2285 43.1679 65.2285C40.6167 65.2285 39.1267 62.9056 39.1046 58.8841C39.1046 56.6438 39.1046 55.5191 39.0781 53.2788C39.0781 51.8465 39.8386 50.6942 40.8157 50.6483C41.7928 50.6024 42.5843 51.6858 42.5843 53.1319C42.5843 55.1885 42.5843 56.2169 42.6108 58.2689C42.6108 59.6462 43.0883 60.4036 43.9637 60.3899C49.6997 60.3133 55.4504 60.2674 61.2159 60.2521H61.2468ZM60.5482 36.5501C57.2676 33.9012 53.9516 31.3074 50.5869 28.81C49.3666 27.9149 48.5796 26.129 48.5708 23.5215C48.5708 22.4564 48.5708 21.9193 48.5708 20.8543C48.5708 19.3852 49.3401 18.2743 50.3393 18.187C51.3386 18.0998 52.1079 19.0776 52.1079 20.5559C52.1079 21.4511 52.1079 21.901 52.1079 22.8007C52.1079 23.8383 52.382 24.3662 52.7888 24.6692C56.5115 27.4236 58.3729 28.8973 62.0736 31.8859C62.8518 32.5377 63.1126 34.2593 62.7191 35.4712C62.3256 36.6832 61.2468 37.1423 60.5173 36.5501H60.5482Z" fill="#DF1900"/>
<path d="M76.0483 20.6983C81.354 21.4328 83.9759 27.3044 83.9361 32.3267L83.8565 51.5344C83.8918 56.4098 80.8986 62.4053 75.9422 62.3778C70.893 62.3502 68.0192 56.1022 68.0811 51.1855C68.0811 44.6299 68.0811 38.0712 68.0811 31.5095C68.0704 29.7866 68.3595 28.0759 68.9344 26.4597C69.4119 25.1513 70.4288 24.6923 71.2423 25.4773C72.0559 26.2623 72.3565 27.9976 71.879 29.306C71.6515 30.1268 71.5354 30.9767 71.5341 31.8309C71.5341 38.2273 71.5238 44.6238 71.5032 51.0202C71.5032 54.6607 73.4132 57.4473 75.9246 57.4473C78.4359 57.4473 80.3769 54.7938 80.3901 51.2039L80.4564 32.2762C80.4564 28.6862 78.5464 25.794 76.0041 25.6379L74.3461 25.5461C72.9578 25.4727 71.7729 24.5958 70.9594 22.8605C70.3536 21.5705 70.42 19.8031 71.2025 18.8436C71.9851 17.8842 73.1081 18.2193 73.6476 19.4037C73.9836 20.1382 74.3903 20.5973 75.0359 20.6386L76.0483 20.6983ZM92.4826 62.5247C92.4826 63.9432 91.7 65.0404 90.714 65.0404C89.728 65.0404 88.972 63.9203 88.9808 62.4834L89.1798 21.7955C89.1798 20.3586 89.9668 19.3624 90.9483 19.5277C91.9299 19.6929 92.7169 20.937 92.6859 22.351L92.4826 62.5247Z" fill="#DF1900"/>
<path d="M101.697 61.4594C99.1457 61.3997 97.6778 59.1135 97.7176 55.2113L97.89 25.0593C97.89 23.682 98.6416 22.7639 99.6143 22.9567C100.587 23.1495 101.321 24.3936 101.312 25.7571C101.259 35.468 101.205 45.179 101.149 54.89C101.149 56.2029 101.591 56.9283 102.475 56.9742C105.415 57.1165 106.896 57.1946 109.823 57.369C110.628 57.4149 111.265 58.4019 111.256 59.5817C111.247 60.7616 110.61 61.6935 109.806 61.6705C106.556 61.5741 104.938 61.5328 101.697 61.4594ZM116.265 62.5061C116.265 63.7318 115.522 64.6821 114.581 64.6729C113.639 64.6637 112.905 63.6767 112.909 62.4142L112.976 43.7345C111.159 43.4269 110.252 43.2754 108.431 42.9999C107.626 42.8806 106.994 41.8109 107.002 40.5944C107.011 39.3778 107.648 38.5102 108.453 38.6571C110.27 38.9922 111.181 39.1667 112.993 39.5293C113.015 34.6539 113.024 32.2162 113.046 27.3409C113.046 26.0784 113.785 25.3301 114.713 25.6285C115.642 25.9269 116.367 27.1343 116.362 28.383C116.336 39.7527 116.304 51.1271 116.265 62.5061ZM123.043 63.1304C123.043 64.2827 122.269 65.1779 121.332 65.1687C120.395 65.1595 119.621 64.2505 119.621 63.0432C119.645 51.7744 119.665 40.5041 119.683 29.2323C119.683 28.0387 120.443 27.396 121.367 27.7311C121.864 27.9676 122.286 28.3464 122.583 28.8229C122.879 29.2993 123.039 29.8538 123.043 30.4213V63.1304Z" fill="#DF1900"/>
</svg>
