<svg width="128" height="72" viewBox="0 0 128 72" fill="none" xmlns="http://www.w3.org/2000/svg">
<path d="M1 21.4197V64.1139C1 65.9402 1.70325 67.6917 2.95504 68.9831C4.20682 70.2745 5.90461 71 7.67491 71H120.325C122.095 71 123.793 70.2745 125.045 68.9831C126.297 67.6917 127 65.9402 127 64.1139V21.4197C127 21.4197 127 1 63.9978 1C0.995553 1 1 21.4197 1 21.4197Z" fill="#FFE8AE" stroke="#DF1900" stroke-width="1.15203" stroke-miterlimit="10"/>
<path d="M17.5293 14.125L18.4092 15.367L19.8992 15.3223L19.0301 16.5699L19.5321 18.0245L18.1123 17.5545L16.9355 18.5L16.9301 16.9559L15.6992 16.0887L17.1136 15.602L17.5293 14.125Z" fill="#DF1900"/>
<path d="M49.1656 7.5625L49.9298 8.89946L51.3992 8.99049L50.4374 10.1795L50.8114 11.6929L49.4542 11.0898L48.2145 11.9375L48.3374 10.373L47.1992 9.38305L48.6313 9.02463L49.1656 7.5625Z" fill="#DF1900"/>
<path d="M110.47 14.125L109.59 15.367L108.1 15.3223L108.969 16.5699L108.467 18.0245L109.886 17.5545L111.063 18.5L111.069 16.9559L112.3 16.0887L110.885 15.602L110.47 14.125Z" fill="#DF1900"/>
<path d="M80.9328 7.5625L80.1687 8.89946L78.6992 8.99049L79.6611 10.1795L79.287 11.6929L80.6443 11.0898L81.884 11.9375L81.7611 10.373L82.8992 9.38305L81.4672 9.02463L80.9328 7.5625Z" fill="#DF1900"/>
<path d="M9.95848 40.4075C9.95848 41.576 10.3897 42.0704 11.2521 41.8996C15.7323 41.0007 17.9832 40.6187 22.4893 39.9266C22.6797 39.8956 22.8747 39.9213 23.0517 40.0008C23.2287 40.0804 23.3805 40.2104 23.4897 40.3761C23.7886 40.8028 23.9405 41.3222 23.9209 41.8501C23.9408 42.4073 23.8012 42.9579 23.5198 43.4321C23.4199 43.6257 23.2784 43.7925 23.1064 43.9196C22.9343 44.0467 22.7364 44.1306 22.5281 44.1647C18.5092 44.6635 14.4904 45.2523 10.4975 45.9264C9.25993 46.1286 8.30266 45.8365 7.62136 45.068C6.94005 44.2995 6.59509 43.122 6.59509 41.5086V32.4348C6.42978 32.4997 6.25028 32.5147 6.07716 32.4781C5.90403 32.4416 5.7443 32.3549 5.61626 32.2281C5.47262 32.0744 5.36155 31.8909 5.29024 31.6896C5.21893 31.4883 5.18897 31.2737 5.2023 31.0596C5.19743 30.5425 5.33674 30.0351 5.60332 29.599C5.81545 29.1882 6.1609 28.8696 6.57784 28.7001C11.2133 27.1002 15.8099 25.6665 20.523 24.3183C20.7023 24.2645 20.893 24.2679 21.0705 24.328C21.248 24.388 21.4042 24.502 21.5191 24.6553C21.8191 25.0574 21.9719 25.5577 21.9503 26.0665C21.9647 26.6309 21.8273 27.1882 21.5535 27.6754C21.4515 27.8777 21.3108 28.0562 21.1403 28.1999C20.9698 28.3437 20.7729 28.4496 20.5618 28.5114C16.2972 29.5271 14.1757 30.1023 9.95417 31.3832L9.95848 40.4075ZM9.30736 54.6631C9.11822 54.6844 8.927 54.6542 8.75241 54.5754C8.57782 54.4966 8.42582 54.372 8.31128 54.2137C8.02385 53.8301 7.87844 53.3515 7.90164 52.8654C7.89075 52.3567 8.03245 51.8571 8.30697 51.4363C8.41457 51.2536 8.55901 51.0975 8.73026 50.9787C8.90151 50.86 9.09548 50.7815 9.29874 50.7487C15.7294 49.9757 22.1659 49.3105 28.608 48.7532C28.8497 48.7356 29.0914 48.7869 29.3072 48.9017C29.523 49.0165 29.7047 49.1905 29.8327 49.4049C30.1812 49.9442 30.3577 50.5842 30.3372 51.234C30.3372 55.5395 30.3717 57.6922 30.3975 62.0201C30.4182 62.6303 30.2488 63.231 29.9146 63.7324C29.7858 63.9457 29.6079 64.122 29.397 64.2452C29.1861 64.3684 28.949 64.4347 28.7072 64.438C28.4646 64.4351 28.2264 64.3701 28.0136 64.2486C27.8008 64.1271 27.6199 63.9529 27.4869 63.7414C27.1507 63.2537 26.9752 62.6655 26.9867 62.0651L26.9393 53.3598C21.0519 53.7013 15.1746 54.1358 9.30736 54.6631ZM30.2897 44.4927C30.3059 45.1149 30.1372 45.727 29.8068 46.2455C29.6796 46.4688 29.5043 46.6581 29.2948 46.7986C29.0852 46.939 28.8471 47.0266 28.5994 47.0544C28.3654 47.0762 28.1301 47.0337 27.9167 46.9312C27.7034 46.8287 27.5195 46.6697 27.3834 46.4702C27.0388 46.0023 26.8619 45.4237 26.8832 44.8343C26.8832 41.0592 26.8487 39.1671 26.8272 35.3965C24.5375 35.756 23.3775 35.9493 21.1094 36.3717C20.9226 36.4082 20.7298 36.3891 20.5529 36.3168C20.376 36.2445 20.2222 36.1218 20.109 35.9627C19.8113 35.5577 19.6588 35.0569 19.6778 34.5471C19.6626 33.9919 19.8018 33.4441 20.0788 32.9696C20.1803 32.771 20.3206 32.5968 20.4907 32.4582C20.6608 32.3197 20.8569 32.2198 21.0663 32.1651C23.3646 31.6798 24.5116 31.4551 26.8142 31.0596L26.7711 23.4958C26.7622 22.8606 26.9299 22.2362 27.2541 21.6982C27.3785 21.459 27.5487 21.2491 27.7541 21.0813C27.9596 20.9136 28.1959 20.7916 28.4485 20.7229C28.6712 20.6663 28.9048 20.6787 29.1208 20.7585C29.3368 20.8384 29.5258 20.9822 29.6645 21.1723C30.0142 21.6272 30.1935 22.1989 30.169 22.7813C30.2092 30.0109 30.2495 37.2481 30.2897 44.4927Z" fill="#DF1900"/>
<path d="M51.4742 44.8295C51.4742 47.5627 51.4742 48.9293 51.4742 51.6671C51.4956 52.3434 51.3137 53.0102 50.9529 53.5785C50.821 53.8143 50.6325 54.0121 50.4049 54.1534C50.1773 54.2947 49.9182 54.3748 49.6519 54.3862C49.3941 54.3803 49.1421 54.3078 48.9194 54.1755C48.6966 54.0433 48.5106 53.8556 48.3786 53.6302C48.0152 53.0747 47.8284 52.4189 47.8434 51.7517V44.961C43.1561 45.1488 40.8171 45.2756 36.139 45.6043C35.9204 45.6133 35.7036 45.5595 35.5135 45.449C35.3235 45.3386 35.1677 45.176 35.0641 44.9797C34.7477 44.4793 34.5869 43.8934 34.6028 43.2985C34.5766 42.6888 34.7138 42.0833 34.9995 41.5468C35.1002 41.3353 35.2506 41.1522 35.4372 41.0138C35.6239 40.8754 35.8412 40.7859 36.0698 40.7532C44.877 40.0675 53.6518 39.6636 62.4866 39.5415C62.7139 39.5543 62.9336 39.629 63.1227 39.7579C63.3118 39.8868 63.4634 40.0651 63.5615 40.2741C63.8493 40.8326 63.9996 41.4539 63.9996 42.0845C63.9996 42.7152 63.8493 43.3364 63.5615 43.8949C63.4639 44.1051 63.3126 44.2848 63.1236 44.4153C62.9345 44.5458 62.7146 44.6223 62.4866 44.6369C58.0669 44.651 55.8801 44.7074 51.4742 44.8295ZM36.3836 35.4371C36.1677 34.8082 36.1215 34.1319 36.2498 33.4787C36.3275 32.8624 36.6032 32.2895 37.0341 31.8492C40.1851 28.9798 41.7675 27.5333 44.9323 24.664C45.0998 24.5059 45.3056 24.3961 45.5286 24.3458C45.7515 24.2954 45.9836 24.3064 46.201 24.3775C46.4437 24.473 46.6606 24.6259 46.8338 24.8235C47.0071 25.0211 47.1317 25.2577 47.1975 25.514C47.4132 26.1559 47.4578 26.8446 47.3267 27.5099C47.2524 28.1242 46.974 28.6942 46.5378 29.1254C43.4053 31.9713 41.8321 33.4036 38.6903 36.2542C38.527 36.4237 38.3199 36.5428 38.093 36.5977C37.866 36.6525 37.6285 36.6409 37.4077 36.5641C37.1621 36.4712 36.9415 36.3208 36.7635 36.125C36.5856 35.9292 36.4554 35.6935 36.3836 35.4371ZM60.5535 59.3501C60.7806 59.3612 61.0004 59.4353 61.1891 59.5644C61.3778 59.6936 61.5281 59.8728 61.6239 60.0827C61.9311 60.6327 62.0827 61.2585 62.0622 61.8908C62.0815 62.5244 61.9299 63.1514 61.6239 63.7035C61.5281 63.9124 61.3783 64.0909 61.1906 64.22C61.0029 64.349 60.7843 64.4237 60.5582 64.4361H41.6891C41.069 64.4536 40.4554 64.3049 39.9097 64.0048C39.3639 63.7048 38.9052 63.264 38.5796 62.7267C37.8353 61.5965 37.4585 60.0029 37.4493 57.946L37.44 52.2213C37.4153 51.5556 37.596 50.8986 37.9568 50.3428C38.0901 50.1078 38.278 49.9096 38.504 49.7655C38.73 49.6214 38.9872 49.5358 39.2531 49.5163C39.5116 49.5074 39.7678 49.5678 39.9962 49.6914C40.2245 49.8151 40.4169 49.9976 40.5541 50.2207C40.923 50.7595 41.1107 51.4053 41.0893 52.0616C41.0893 54.1608 41.0893 55.2128 41.117 57.3167C41.117 58.7788 41.5876 59.502 42.5287 59.4863C48.5416 59.4112 54.556 59.3658 60.572 59.3501H60.5535ZM62.1221 33.9906C62.0554 34.2621 61.9307 34.5152 61.7568 34.7319C61.583 34.9487 61.3643 35.1237 61.1164 35.2445C60.9079 35.3423 60.677 35.3796 60.4491 35.3523C60.2211 35.3249 60.005 35.234 59.8246 35.0895C56.4291 32.3845 52.9736 29.7312 49.4628 27.1764C48.7827 26.6396 48.2556 25.928 47.9357 25.1148C47.5262 24.0489 47.3302 22.9105 47.359 21.7664V19.0379C47.336 18.371 47.5201 17.7138 47.8849 17.1594C48.0242 16.9264 48.2146 16.7293 48.441 16.5835C48.6675 16.4376 48.924 16.3471 49.1906 16.3188C49.4428 16.2949 49.6968 16.3392 49.9269 16.4472C50.1569 16.5552 50.3549 16.7232 50.5008 16.934C50.8782 17.4561 51.0672 18.0947 51.036 18.742C51.036 19.6578 51.036 20.118 51.036 21.0385C51.0167 21.4537 51.0843 21.8682 51.2343 22.2548C51.3483 22.5247 51.5238 22.7629 51.7464 22.9498C55.631 25.7676 57.5732 27.2704 61.4347 30.3276C61.879 30.7495 62.1604 31.3191 62.2282 31.9337C62.3699 32.619 62.3398 33.3297 62.1406 34L62.1221 33.9906Z" fill="#DF1900"/>
<path d="M76.355 18.6924C77.4776 18.7686 78.5608 19.1354 79.4974 19.7566C80.5075 20.4172 81.3819 21.2634 82.0738 22.2501C82.838 23.3384 83.4234 24.5408 83.808 25.8123C84.2358 27.2059 84.4465 28.6567 84.4329 30.1139L84.3514 48.9798C84.3565 50.4137 84.1349 51.8395 83.6948 53.2048C83.3088 54.4192 82.7161 55.5586 81.9425 56.5731C81.2456 57.4903 80.3691 58.2572 79.3661 58.8276C78.4158 59.3663 77.3398 59.6462 76.2463 59.6392C75.1502 59.6363 74.0748 59.3421 73.1311 58.787C72.1278 58.1974 71.2558 57.4104 70.5682 56.4739C69.7966 55.4196 69.2102 54.2425 68.834 52.9929C68.3977 51.5855 68.1838 50.119 68.2001 48.6462V29.3203C68.1839 27.6276 68.4801 25.9464 69.074 24.3603C69.2434 23.8119 69.6245 23.353 70.1335 23.0843C70.3552 22.9873 70.6027 22.9652 70.8381 23.0214C71.0736 23.0776 71.2841 23.2089 71.4376 23.3954C71.8904 23.8565 72.1852 24.4483 72.2798 25.0863C72.3955 25.7754 72.3284 26.4826 72.0851 27.1379C71.8301 27.9394 71.7108 28.7775 71.7319 29.6179C71.7319 35.8975 71.7213 42.1802 71.7002 48.4658C71.6914 49.3093 71.8074 50.1495 72.0443 50.9593C72.2466 51.671 72.5714 52.3423 73.0043 52.9433C73.3908 53.4852 73.8818 53.9451 74.4487 54.296C74.9954 54.6245 75.6214 54.799 76.2599 54.801C76.8936 54.8175 77.5197 54.6616 78.0711 54.3501C78.6381 54.0224 79.1325 53.5837 79.5246 53.0605C79.9591 52.4767 80.2885 51.8222 80.4981 51.1261C80.7368 50.3319 80.8558 49.5068 80.8513 48.6777L80.883 30.0643C80.8923 29.2255 80.7779 28.39 80.5434 27.5843C80.3378 26.8605 80.0118 26.1762 79.5789 25.5597C79.1902 25.0008 78.6985 24.5203 78.1299 24.1439C77.5892 23.7905 76.9645 23.5852 76.3188 23.5487L74.6162 23.4585C73.1356 23.3819 71.9809 22.5116 71.1478 20.8207C70.8213 20.1803 70.6787 19.4625 70.7357 18.7466C70.7612 18.0718 70.9988 17.4219 71.4149 16.8888C71.5547 16.6672 71.7617 16.4957 72.006 16.3992C72.2503 16.3027 72.519 16.2863 72.7733 16.3522C73.0377 16.4329 73.2801 16.5728 73.4818 16.7611C73.6835 16.9495 73.8392 17.1813 73.937 17.4389C74.0895 17.7564 74.2946 18.0461 74.5438 18.2956C74.7639 18.5057 75.0541 18.6277 75.3588 18.6383L76.355 18.6924ZM93.1855 59.7745C93.2019 60.4006 93.0162 61.0154 92.6557 61.5285C92.52 61.7452 92.3322 61.9246 92.1092 62.0506C91.8862 62.1766 91.6352 62.2451 91.3788 62.25C91.1223 62.2443 90.8715 62.1738 90.6498 62.0453C90.428 61.9167 90.2427 61.7343 90.111 61.515C89.7573 60.9912 89.5797 60.3692 89.6039 59.7384L89.8076 19.7701C89.7805 19.1615 89.9661 18.5623 90.3329 18.0747C90.475 17.8745 90.6713 17.7186 90.899 17.6252C91.1267 17.5318 91.3763 17.5047 91.6188 17.5471C91.8862 17.6014 92.1386 17.713 92.3583 17.8742C92.5781 18.0353 92.7599 18.2423 92.8912 18.4805C93.2372 19.0312 93.4135 19.6708 93.3983 20.3202L93.1855 59.7745Z" fill="#DF1900"/>
<path d="M101.574 60.7847C100.987 60.7939 100.407 60.6475 99.8914 60.3597C99.3755 60.0719 98.9405 59.6524 98.6285 59.1417C97.9295 58.0674 97.591 56.5643 97.5998 54.6279L97.7712 24.9811C97.7463 24.3985 97.9205 23.8253 98.2636 23.3606C98.4018 23.1707 98.5913 23.0267 98.8086 22.9464C99.0259 22.8662 99.2614 22.8532 99.4858 22.9092C99.7436 22.9762 99.9846 23.0986 100.193 23.2682C100.401 23.4378 100.572 23.6508 100.695 23.8933C101.016 24.4366 101.18 25.0632 101.165 25.6988L101.002 54.3435C101.002 55.6661 101.442 56.3476 102.321 56.3883C105.245 56.5327 106.718 56.6094 109.628 56.781C109.836 56.8009 110.037 56.8715 110.214 56.9868C110.39 57.1022 110.538 57.2591 110.643 57.4445C110.928 57.8933 111.071 58.4214 111.052 58.9566C111.066 59.4846 110.911 60.0027 110.613 60.4327C110.504 60.6096 110.354 60.7555 110.175 60.8565C109.997 60.9576 109.796 61.0105 109.593 61.0104C106.41 60.9021 104.792 60.875 101.574 60.7847ZM116.06 61.8184C116.075 62.3657 115.902 62.901 115.572 63.3305C115.434 63.5215 115.256 63.6769 115.05 63.7843C114.843 63.8917 114.616 63.948 114.385 63.9489C114.151 63.945 113.921 63.8836 113.716 63.7697C113.51 63.6558 113.334 63.4928 113.202 63.2944C112.875 62.8427 112.706 62.2908 112.723 61.7281L112.802 43.3614C110.995 43.0589 110.094 42.91 108.283 42.6392C108.068 42.5981 107.865 42.5072 107.69 42.3734C107.515 42.2397 107.372 42.0665 107.271 41.8673C106.988 41.3863 106.846 40.8314 106.863 40.2694C106.847 39.7467 107.001 39.2334 107.302 38.8114C107.411 38.6422 107.565 38.5093 107.746 38.4291C107.928 38.3489 108.128 38.3249 108.322 38.3601C110.129 38.6851 111.035 38.8566 112.837 39.2177C112.859 34.424 112.868 32.0272 112.89 27.2335C112.873 26.9767 112.908 26.7191 112.991 26.4762C113.074 26.2334 113.204 26.0104 113.373 25.8207C113.521 25.6618 113.712 25.5513 113.92 25.5031C114.129 25.4549 114.347 25.4712 114.547 25.5498C115.038 25.7357 115.445 26.0982 115.695 26.57C116.004 27.0707 116.167 27.6517 116.165 28.2446C116.13 39.4358 116.093 50.6271 116.055 61.8184H116.06ZM122.799 62.4323C122.812 62.954 122.633 63.4615 122.298 63.8541C122.152 64.0386 121.968 64.1869 121.759 64.2879C121.549 64.3889 121.32 64.44 121.089 64.4374C120.858 64.4348 120.63 64.3785 120.423 64.2728C120.216 64.1672 120.035 64.0148 119.893 63.827C119.56 63.409 119.383 62.8821 119.396 62.342C119.42 51.2621 119.44 40.1806 119.458 29.0977C119.441 28.8571 119.477 28.6157 119.562 28.3909C119.647 28.1661 119.78 27.9635 119.95 27.7977C120.112 27.6581 120.308 27.5679 120.518 27.5376C120.727 27.5073 120.94 27.538 121.133 27.6262C121.625 27.8263 122.04 28.1882 122.311 28.6553C122.624 29.1317 122.794 29.6921 122.799 30.2668V62.4323Z" fill="#DF1900"/>
</svg>
