<svg width="14" height="14" viewBox="0 0 14 14" fill="none" xmlns="http://www.w3.org/2000/svg">
<path d="M4.14421 6.90914L4.14421 4.20555C4.14421 2.71239 5.36362 1.50195 6.86783 1.50195C8.37204 1.50195 9.59144 2.71239 9.59144 4.20555V6.90914M2.21971 12.9922H11.5159C12.2085 12.9922 12.5547 12.9922 12.757 12.774C12.9593 12.5558 12.9306 12.2132 12.8731 11.5282L12.5232 7.36052C12.4244 6.18385 12.375 5.59551 11.9841 5.23848C11.5932 4.88145 10.9985 4.88145 9.80897 4.88145H3.92669C2.7372 4.88145 2.14245 4.88145 1.75155 5.23848C1.36066 5.59551 1.31126 6.18385 1.21248 7.36052L0.862606 11.5282C0.805096 12.2132 0.776341 12.5558 0.978639 12.774C1.18094 12.9922 1.52719 12.9922 2.21971 12.9922Z" stroke="white" stroke-width="1.35466" stroke-linecap="round"/>
</svg>
