<svg width="20" height="20" viewBox="0 0 20 20" fill="none" xmlns="http://www.w3.org/2000/svg">
<path d="M9.9163 7.55843V4.85366H7.21153V3.05048H9.9163V0.345703H11.7195V3.05048H14.4243V4.85366H11.7195V7.55843H9.9163ZM6.30994 19.2791C5.81406 19.2791 5.38956 19.1026 5.03644 18.7494C4.68332 18.3963 4.50675 17.9718 4.50675 17.4759C4.50675 16.9801 4.68332 16.5556 5.03644 16.2024C5.38956 15.8493 5.81406 15.6728 6.30994 15.6728C6.80581 15.6728 7.23031 15.8493 7.58343 16.2024C7.93656 16.5556 8.11312 16.9801 8.11312 17.4759C8.11312 17.9718 7.93656 18.3963 7.58343 18.7494C7.23031 19.1026 6.80581 19.2791 6.30994 19.2791ZM15.3258 19.2791C14.83 19.2791 14.4055 19.1026 14.0523 18.7494C13.6992 18.3963 13.5227 17.9718 13.5227 17.4759C13.5227 16.9801 13.6992 16.5556 14.0523 16.2024C14.4055 15.8493 14.83 15.6728 15.3258 15.6728C15.8217 15.6728 16.2462 15.8493 16.5993 16.2024C16.9525 16.5556 17.129 16.9801 17.129 17.4759C17.129 17.9718 16.9525 18.3963 16.5993 18.7494C16.2462 19.1026 15.8217 19.2791 15.3258 19.2791ZM0.900391 3.05048V1.24729H3.8531L7.68486 9.36161H13.996L17.5122 3.05048H19.5633L15.5963 10.2181C15.431 10.5187 15.2094 10.7516 14.9314 10.9169C14.6534 11.0821 14.3491 11.1648 14.0185 11.1648H7.30169L6.30994 12.968H17.129V14.7712H6.30994C5.63374 14.7712 5.11908 14.4781 4.76596 13.8921C4.41284 13.3061 4.40157 12.7125 4.73215 12.1115L5.9493 9.90257L2.70357 3.05048H0.900391Z" fill="#1C1B1F"/>
</svg>
