<svg width="23" height="22" viewBox="0 0 23 22" fill="none" xmlns="http://www.w3.org/2000/svg">
<path d="M7.43481 10.0907C7.74136 10.0907 7.99831 9.98702 8.20567 9.77965C8.41304 9.57228 8.51672 9.31533 8.51672 9.00879C8.51672 8.70225 8.41304 8.44529 8.20567 8.23793C7.99831 8.03056 7.74136 7.92688 7.43481 7.92688C7.12827 7.92688 6.87132 8.03056 6.66395 8.23793C6.45659 8.44529 6.35291 8.70225 6.35291 9.00879C6.35291 9.31533 6.45659 9.57228 6.66395 9.77965C6.87132 9.98702 7.12827 10.0907 7.43481 10.0907ZM11.7625 10.0907C12.069 10.0907 12.3259 9.98702 12.5333 9.77965C12.7407 9.57228 12.8444 9.31533 12.8444 9.00879C12.8444 8.70225 12.7407 8.44529 12.5333 8.23793C12.3259 8.03056 12.069 7.92688 11.7625 7.92688C11.4559 7.92688 11.199 8.03056 10.9916 8.23793C10.7842 8.44529 10.6805 8.70225 10.6805 9.00879C10.6805 9.31533 10.7842 9.57228 10.9916 9.77965C11.199 9.98702 11.4559 10.0907 11.7625 10.0907ZM16.0901 10.0907C16.3966 10.0907 16.6536 9.98702 16.8609 9.77965C17.0683 9.57228 17.172 9.31533 17.172 9.00879C17.172 8.70225 17.0683 8.44529 16.8609 8.23793C16.6536 8.03056 16.3966 7.92688 16.0901 7.92688C15.7835 7.92688 15.5266 8.03056 15.3192 8.23793C15.1119 8.44529 15.0082 8.70225 15.0082 9.00879C15.0082 9.31533 15.1119 9.57228 15.3192 9.77965C15.5266 9.98702 15.7835 10.0907 16.0901 10.0907ZM0.943359 21.9917V2.51733C0.943359 1.92228 1.15523 1.41289 1.57898 0.989137C2.00273 0.56539 2.51213 0.353516 3.10718 0.353516H20.4177C21.0128 0.353516 21.5222 0.56539 21.9459 0.989137C22.3697 1.41289 22.5815 1.92228 22.5815 2.51733V15.5002C22.5815 16.0953 22.3697 16.6047 21.9459 17.0284C21.5222 17.4522 21.0128 17.6641 20.4177 17.6641H5.271L0.943359 21.9917ZM4.35137 15.5002H20.4177V2.51733H3.10718V16.7174L4.35137 15.5002Z" fill="black"/>
</svg>
