<svg width="19" height="18" viewBox="0 0 19 18" fill="none" xmlns="http://www.w3.org/2000/svg">
<path d="M9.8206 17.3782L8.51329 16.2061C6.99561 14.8387 5.7409 13.6591 4.74915 12.6674C3.7574 11.6756 2.96851 10.7853 2.38247 9.9964C1.79644 9.20751 1.38696 8.48248 1.15405 7.82131C0.921143 7.16015 0.804688 6.48395 0.804688 5.79274C0.804688 4.38024 1.27802 3.20066 2.22469 2.25399C3.17136 1.30732 4.35095 0.833984 5.76344 0.833984C6.54482 0.833984 7.28863 0.999276 7.99487 1.32986C8.70112 1.66044 9.3097 2.12626 9.8206 2.72733C10.3315 2.12626 10.9401 1.66044 11.6463 1.32986C12.3526 0.999276 13.0964 0.833984 13.8778 0.833984C15.2902 0.833984 16.4698 1.30732 17.4165 2.25399C18.3632 3.20066 18.8365 4.38024 18.8365 5.79274C18.8365 6.48395 18.7201 7.16015 18.4871 7.82131C18.2542 8.48248 17.8448 9.20751 17.2587 9.9964C16.6727 10.7853 15.8838 11.6756 14.892 12.6674C13.9003 13.6591 12.6456 14.8387 11.1279 16.2061L9.8206 17.3782ZM9.8206 14.9439C11.2631 13.6516 12.4502 12.5434 13.3819 11.6193C14.3135 10.6951 15.0498 9.89122 15.5908 9.20751C16.1317 8.5238 16.5074 7.91523 16.7178 7.38179C16.9281 6.84835 17.0333 6.31866 17.0333 5.79274C17.0333 4.89114 16.7328 4.13982 16.1317 3.53876C15.5307 2.9377 14.7793 2.63717 13.8778 2.63717C13.1715 2.63717 12.5179 2.83627 11.9168 3.23447C11.3157 3.63267 10.9025 4.13982 10.6771 4.75591H8.96409C8.73869 4.13982 8.32546 3.63267 7.7244 3.23447C7.12334 2.83627 6.46968 2.63717 5.76344 2.63717C4.86185 2.63717 4.11052 2.9377 3.50946 3.53876C2.9084 4.13982 2.60787 4.89114 2.60787 5.79274C2.60787 6.31866 2.71306 6.84835 2.92343 7.38179C3.1338 7.91523 3.50946 8.5238 4.05042 9.20751C4.59137 9.89122 5.32767 10.6951 6.25931 11.6193C7.19096 12.5434 8.37805 13.6516 9.8206 14.9439Z" fill="#D71313"/>
</svg>
