<svg width="18" height="16" viewBox="0 0 18 16" fill="none" xmlns="http://www.w3.org/2000/svg">
<path d="M11.5 1.5L9.5 3V3.5L8.5 2.5L6.5 1.5L4.5 1L2.5 2L1.5 4L1 6L4 10L6 12L9 14.5L10.5 13L12.5 11.5L15 9L16 7L17 4.5L16 2.5L14 1L11.5 1.5Z" fill="#D71313"/>
<path d="M9 16L7.695 14.8665C6.18 13.5441 4.9275 12.4033 3.9375 11.4441C2.9475 10.485 2.16 9.62398 1.575 8.86104C0.99 8.09809 0.58125 7.39691 0.34875 6.75749C0.11625 6.11807 0 5.46412 0 4.79564C0 3.42961 0.4725 2.28883 1.4175 1.3733C2.3625 0.457766 3.54 0 4.95 0C5.73 0 6.4725 0.159855 7.1775 0.479564C7.8825 0.799273 8.49 1.24977 9 1.83106C9.51 1.24977 10.1175 0.799273 10.8225 0.479564C11.5275 0.159855 12.27 0 13.05 0C14.46 0 15.6375 0.457766 16.5825 1.3733C17.5275 2.28883 18 3.42961 18 4.79564C18 5.46412 17.8838 6.11807 17.6513 6.75749C17.4188 7.39691 17.01 8.09809 16.425 8.86104C15.84 9.62398 15.0525 10.485 14.0625 11.4441C13.0725 12.4033 11.82 13.5441 10.305 14.8665L9 16ZM9 13.6458C10.44 12.396 11.625 11.3243 12.555 10.4305C13.485 9.53679 14.22 8.75931 14.76 8.09809C15.3 7.43688 15.675 6.84832 15.885 6.33243C16.095 5.81653 16.2 5.30427 16.2 4.79564C16.2 3.92371 15.9 3.19709 15.3 2.6158C14.7 2.03451 13.95 1.74387 13.05 1.74387C12.345 1.74387 11.6925 1.93642 11.0925 2.32153C10.4925 2.70663 10.08 3.19709 9.855 3.79292H8.145C7.92 3.19709 7.5075 2.70663 6.9075 2.32153C6.3075 1.93642 5.655 1.74387 4.95 1.74387C4.05 1.74387 3.3 2.03451 2.7 2.6158C2.1 3.19709 1.8 3.92371 1.8 4.79564C1.8 5.30427 1.905 5.81653 2.115 6.33243C2.325 6.84832 2.7 7.43688 3.24 8.09809C3.78 8.75931 4.515 9.53679 5.445 10.4305C6.375 11.3243 7.56 12.396 9 13.6458Z" fill="#D71313"/>
</svg>
